G04 #@! TF.GenerationSoftware,KiCad,Pcbnew,(5.0.0)*
G04 #@! TF.CreationDate,2018-10-15T00:14:37+02:00*
G04 #@! TF.ProjectId,GettingToBlinky,47657474696E67546F426C696E6B792E,rev?*
G04 #@! TF.SameCoordinates,Original*
G04 #@! TF.FileFunction,Legend,Top*
G04 #@! TF.FilePolarity,Positive*
%FSLAX46Y46*%
G04 Gerber Fmt 4.6, Leading zero omitted, Abs format (unit mm)*
G04 Created by KiCad (PCBNEW (5.0.0)) date 10/15/18 00:14:37*
%MOMM*%
%LPD*%
G01*
G04 APERTURE LIST*
%ADD10C,0.250000*%
%ADD11C,0.120000*%
%ADD12C,0.150000*%
%ADD13C,0.100000*%
%ADD14C,1.825000*%
%ADD15C,1.550000*%
%ADD16R,1.950000X1.000000*%
G04 APERTURE END LIST*
D10*
X178521428Y-105750000D02*
X178397619Y-105688095D01*
X178211904Y-105688095D01*
X178026190Y-105750000D01*
X177902380Y-105873809D01*
X177840476Y-105997619D01*
X177778571Y-106245238D01*
X177778571Y-106430952D01*
X177840476Y-106678571D01*
X177902380Y-106802380D01*
X178026190Y-106926190D01*
X178211904Y-106988095D01*
X178335714Y-106988095D01*
X178521428Y-106926190D01*
X178583333Y-106864285D01*
X178583333Y-106430952D01*
X178335714Y-106430952D01*
X179635714Y-106926190D02*
X179511904Y-106988095D01*
X179264285Y-106988095D01*
X179140476Y-106926190D01*
X179078571Y-106802380D01*
X179078571Y-106307142D01*
X179140476Y-106183333D01*
X179264285Y-106121428D01*
X179511904Y-106121428D01*
X179635714Y-106183333D01*
X179697619Y-106307142D01*
X179697619Y-106430952D01*
X179078571Y-106554761D01*
X180069047Y-106121428D02*
X180564285Y-106121428D01*
X180254761Y-105688095D02*
X180254761Y-106802380D01*
X180316666Y-106926190D01*
X180440476Y-106988095D01*
X180564285Y-106988095D01*
X180811904Y-106121428D02*
X181307142Y-106121428D01*
X180997619Y-105688095D02*
X180997619Y-106802380D01*
X181059523Y-106926190D01*
X181183333Y-106988095D01*
X181307142Y-106988095D01*
X181740476Y-106988095D02*
X181740476Y-106121428D01*
X181740476Y-105688095D02*
X181678571Y-105750000D01*
X181740476Y-105811904D01*
X181802380Y-105750000D01*
X181740476Y-105688095D01*
X181740476Y-105811904D01*
X182359523Y-106121428D02*
X182359523Y-106988095D01*
X182359523Y-106245238D02*
X182421428Y-106183333D01*
X182545238Y-106121428D01*
X182730952Y-106121428D01*
X182854761Y-106183333D01*
X182916666Y-106307142D01*
X182916666Y-106988095D01*
X184092857Y-106121428D02*
X184092857Y-107173809D01*
X184030952Y-107297619D01*
X183969047Y-107359523D01*
X183845238Y-107421428D01*
X183659523Y-107421428D01*
X183535714Y-107359523D01*
X184092857Y-106926190D02*
X183969047Y-106988095D01*
X183721428Y-106988095D01*
X183597619Y-106926190D01*
X183535714Y-106864285D01*
X183473809Y-106740476D01*
X183473809Y-106369047D01*
X183535714Y-106245238D01*
X183597619Y-106183333D01*
X183721428Y-106121428D01*
X183969047Y-106121428D01*
X184092857Y-106183333D01*
X185516666Y-105688095D02*
X186259523Y-105688095D01*
X185888095Y-106988095D02*
X185888095Y-105688095D01*
X186878571Y-106988095D02*
X186754761Y-106926190D01*
X186692857Y-106864285D01*
X186630952Y-106740476D01*
X186630952Y-106369047D01*
X186692857Y-106245238D01*
X186754761Y-106183333D01*
X186878571Y-106121428D01*
X187064285Y-106121428D01*
X187188095Y-106183333D01*
X187250000Y-106245238D01*
X187311904Y-106369047D01*
X187311904Y-106740476D01*
X187250000Y-106864285D01*
X187188095Y-106926190D01*
X187064285Y-106988095D01*
X186878571Y-106988095D01*
X189292857Y-106307142D02*
X189478571Y-106369047D01*
X189540476Y-106430952D01*
X189602380Y-106554761D01*
X189602380Y-106740476D01*
X189540476Y-106864285D01*
X189478571Y-106926190D01*
X189354761Y-106988095D01*
X188859523Y-106988095D01*
X188859523Y-105688095D01*
X189292857Y-105688095D01*
X189416666Y-105750000D01*
X189478571Y-105811904D01*
X189540476Y-105935714D01*
X189540476Y-106059523D01*
X189478571Y-106183333D01*
X189416666Y-106245238D01*
X189292857Y-106307142D01*
X188859523Y-106307142D01*
X190345238Y-106988095D02*
X190221428Y-106926190D01*
X190159523Y-106802380D01*
X190159523Y-105688095D01*
X190840476Y-106988095D02*
X190840476Y-106121428D01*
X190840476Y-105688095D02*
X190778571Y-105750000D01*
X190840476Y-105811904D01*
X190902380Y-105750000D01*
X190840476Y-105688095D01*
X190840476Y-105811904D01*
X191459523Y-106121428D02*
X191459523Y-106988095D01*
X191459523Y-106245238D02*
X191521428Y-106183333D01*
X191645238Y-106121428D01*
X191830952Y-106121428D01*
X191954761Y-106183333D01*
X192016666Y-106307142D01*
X192016666Y-106988095D01*
X192635714Y-106988095D02*
X192635714Y-105688095D01*
X192759523Y-106492857D02*
X193130952Y-106988095D01*
X193130952Y-106121428D02*
X192635714Y-106616666D01*
X193564285Y-106121428D02*
X193873809Y-106988095D01*
X194183333Y-106121428D02*
X193873809Y-106988095D01*
X193750000Y-107297619D01*
X193688095Y-107359523D01*
X193564285Y-107421428D01*
X175147619Y-109188095D02*
X175147619Y-107888095D01*
X175580952Y-108816666D01*
X176014285Y-107888095D01*
X176014285Y-109188095D01*
X177190476Y-109188095D02*
X177190476Y-108507142D01*
X177128571Y-108383333D01*
X177004761Y-108321428D01*
X176757142Y-108321428D01*
X176633333Y-108383333D01*
X177190476Y-109126190D02*
X177066666Y-109188095D01*
X176757142Y-109188095D01*
X176633333Y-109126190D01*
X176571428Y-109002380D01*
X176571428Y-108878571D01*
X176633333Y-108754761D01*
X176757142Y-108692857D01*
X177066666Y-108692857D01*
X177190476Y-108630952D01*
X178366666Y-109188095D02*
X178366666Y-107888095D01*
X178366666Y-109126190D02*
X178242857Y-109188095D01*
X177995238Y-109188095D01*
X177871428Y-109126190D01*
X177809523Y-109064285D01*
X177747619Y-108940476D01*
X177747619Y-108569047D01*
X177809523Y-108445238D01*
X177871428Y-108383333D01*
X177995238Y-108321428D01*
X178242857Y-108321428D01*
X178366666Y-108383333D01*
X179480952Y-109126190D02*
X179357142Y-109188095D01*
X179109523Y-109188095D01*
X178985714Y-109126190D01*
X178923809Y-109002380D01*
X178923809Y-108507142D01*
X178985714Y-108383333D01*
X179109523Y-108321428D01*
X179357142Y-108321428D01*
X179480952Y-108383333D01*
X179542857Y-108507142D01*
X179542857Y-108630952D01*
X178923809Y-108754761D01*
X181090476Y-109188095D02*
X181090476Y-107888095D01*
X181090476Y-108383333D02*
X181214285Y-108321428D01*
X181461904Y-108321428D01*
X181585714Y-108383333D01*
X181647619Y-108445238D01*
X181709523Y-108569047D01*
X181709523Y-108940476D01*
X181647619Y-109064285D01*
X181585714Y-109126190D01*
X181461904Y-109188095D01*
X181214285Y-109188095D01*
X181090476Y-109126190D01*
X182142857Y-108321428D02*
X182452380Y-109188095D01*
X182761904Y-108321428D02*
X182452380Y-109188095D01*
X182328571Y-109497619D01*
X182266666Y-109559523D01*
X182142857Y-109621428D01*
X184061904Y-107888095D02*
X184804761Y-107888095D01*
X184433333Y-109188095D02*
X184433333Y-107888095D01*
X185795238Y-109188095D02*
X185795238Y-108507142D01*
X185733333Y-108383333D01*
X185609523Y-108321428D01*
X185361904Y-108321428D01*
X185238095Y-108383333D01*
X185795238Y-109126190D02*
X185671428Y-109188095D01*
X185361904Y-109188095D01*
X185238095Y-109126190D01*
X185176190Y-109002380D01*
X185176190Y-108878571D01*
X185238095Y-108754761D01*
X185361904Y-108692857D01*
X185671428Y-108692857D01*
X185795238Y-108630952D01*
X186414285Y-109188095D02*
X186414285Y-108321428D01*
X186414285Y-108569047D02*
X186476190Y-108445238D01*
X186538095Y-108383333D01*
X186661904Y-108321428D01*
X186785714Y-108321428D01*
X187219047Y-109188095D02*
X187219047Y-108321428D01*
X187219047Y-107888095D02*
X187157142Y-107950000D01*
X187219047Y-108011904D01*
X187280952Y-107950000D01*
X187219047Y-107888095D01*
X187219047Y-108011904D01*
X187838095Y-109188095D02*
X187838095Y-107888095D01*
X187961904Y-108692857D02*
X188333333Y-109188095D01*
X188333333Y-108321428D02*
X187838095Y-108816666D01*
X190252380Y-109683333D02*
X190190476Y-109621428D01*
X190066666Y-109435714D01*
X190004761Y-109311904D01*
X189942857Y-109126190D01*
X189880952Y-108816666D01*
X189880952Y-108569047D01*
X189942857Y-108259523D01*
X190004761Y-108073809D01*
X190066666Y-107950000D01*
X190190476Y-107764285D01*
X190252380Y-107702380D01*
X190747619Y-109188095D02*
X190747619Y-108321428D01*
X190747619Y-108569047D02*
X190809523Y-108445238D01*
X190871428Y-108383333D01*
X190995238Y-108321428D01*
X191119047Y-108321428D01*
X192047619Y-109126190D02*
X191923809Y-109188095D01*
X191676190Y-109188095D01*
X191552380Y-109126190D01*
X191490476Y-109002380D01*
X191490476Y-108507142D01*
X191552380Y-108383333D01*
X191676190Y-108321428D01*
X191923809Y-108321428D01*
X192047619Y-108383333D01*
X192109523Y-108507142D01*
X192109523Y-108630952D01*
X191490476Y-108754761D01*
X192542857Y-108321428D02*
X192852380Y-109188095D01*
X193161904Y-108321428D01*
X193657142Y-109064285D02*
X193719047Y-109126190D01*
X193657142Y-109188095D01*
X193595238Y-109126190D01*
X193657142Y-109064285D01*
X193657142Y-109188095D01*
X195947619Y-109188095D02*
X195204761Y-109188095D01*
X195576190Y-109188095D02*
X195576190Y-107888095D01*
X195452380Y-108073809D01*
X195328571Y-108197619D01*
X195204761Y-108259523D01*
X196380952Y-109683333D02*
X196442857Y-109621428D01*
X196566666Y-109435714D01*
X196628571Y-109311904D01*
X196690476Y-109126190D01*
X196752380Y-108816666D01*
X196752380Y-108569047D01*
X196690476Y-108259523D01*
X196628571Y-108073809D01*
X196566666Y-107950000D01*
X196442857Y-107764285D01*
X196380952Y-107702380D01*
D11*
G04 #@! TO.C,C1*
X193790000Y-127447936D02*
X193790000Y-128652064D01*
X195610000Y-127447936D02*
X195610000Y-128652064D01*
G04 #@! TO.C,D1*
X177890000Y-111340000D02*
X177890000Y-114200000D01*
X179810000Y-111340000D02*
X177890000Y-111340000D01*
X179810000Y-114200000D02*
X179810000Y-111340000D01*
G04 #@! TO.C,R1*
X193990000Y-112988748D02*
X193990000Y-113511252D01*
X195410000Y-112988748D02*
X195410000Y-113511252D01*
G04 #@! TO.C,R2*
X193990000Y-119988748D02*
X193990000Y-120511252D01*
X195410000Y-119988748D02*
X195410000Y-120511252D01*
G04 #@! TO.C,R3*
X178140000Y-119761252D02*
X178140000Y-119238748D01*
X179560000Y-119761252D02*
X179560000Y-119238748D01*
D12*
G04 #@! TO.C,U1*
X184325000Y-117325000D02*
X184325000Y-117375000D01*
X188475000Y-117325000D02*
X188475000Y-117470000D01*
X188475000Y-122475000D02*
X188475000Y-122330000D01*
X184325000Y-122475000D02*
X184325000Y-122330000D01*
X184325000Y-117325000D02*
X188475000Y-117325000D01*
X184325000Y-122475000D02*
X188475000Y-122475000D01*
X184325000Y-117375000D02*
X182925000Y-117375000D01*
G04 #@! TO.C,C1*
X196583333Y-127207142D02*
X196535714Y-127254761D01*
X196392857Y-127302380D01*
X196297619Y-127302380D01*
X196154761Y-127254761D01*
X196059523Y-127159523D01*
X196011904Y-127064285D01*
X195964285Y-126873809D01*
X195964285Y-126730952D01*
X196011904Y-126540476D01*
X196059523Y-126445238D01*
X196154761Y-126350000D01*
X196297619Y-126302380D01*
X196392857Y-126302380D01*
X196535714Y-126350000D01*
X196583333Y-126397619D01*
X197535714Y-127302380D02*
X196964285Y-127302380D01*
X197250000Y-127302380D02*
X197250000Y-126302380D01*
X197154761Y-126445238D01*
X197059523Y-126540476D01*
X196964285Y-126588095D01*
G04 #@! TO.C,D1*
X180161904Y-112802380D02*
X180161904Y-111802380D01*
X180400000Y-111802380D01*
X180542857Y-111850000D01*
X180638095Y-111945238D01*
X180685714Y-112040476D01*
X180733333Y-112230952D01*
X180733333Y-112373809D01*
X180685714Y-112564285D01*
X180638095Y-112659523D01*
X180542857Y-112754761D01*
X180400000Y-112802380D01*
X180161904Y-112802380D01*
X181685714Y-112802380D02*
X181114285Y-112802380D01*
X181400000Y-112802380D02*
X181400000Y-111802380D01*
X181304761Y-111945238D01*
X181209523Y-112040476D01*
X181114285Y-112088095D01*
G04 #@! TO.C,R1*
X196433333Y-113302380D02*
X196100000Y-112826190D01*
X195861904Y-113302380D02*
X195861904Y-112302380D01*
X196242857Y-112302380D01*
X196338095Y-112350000D01*
X196385714Y-112397619D01*
X196433333Y-112492857D01*
X196433333Y-112635714D01*
X196385714Y-112730952D01*
X196338095Y-112778571D01*
X196242857Y-112826190D01*
X195861904Y-112826190D01*
X197385714Y-113302380D02*
X196814285Y-113302380D01*
X197100000Y-113302380D02*
X197100000Y-112302380D01*
X197004761Y-112445238D01*
X196909523Y-112540476D01*
X196814285Y-112588095D01*
G04 #@! TO.C,R2*
X196483333Y-119802380D02*
X196150000Y-119326190D01*
X195911904Y-119802380D02*
X195911904Y-118802380D01*
X196292857Y-118802380D01*
X196388095Y-118850000D01*
X196435714Y-118897619D01*
X196483333Y-118992857D01*
X196483333Y-119135714D01*
X196435714Y-119230952D01*
X196388095Y-119278571D01*
X196292857Y-119326190D01*
X195911904Y-119326190D01*
X196864285Y-118897619D02*
X196911904Y-118850000D01*
X197007142Y-118802380D01*
X197245238Y-118802380D01*
X197340476Y-118850000D01*
X197388095Y-118897619D01*
X197435714Y-118992857D01*
X197435714Y-119088095D01*
X197388095Y-119230952D01*
X196816666Y-119802380D01*
X197435714Y-119802380D01*
G04 #@! TO.C,R3*
X176133333Y-120002380D02*
X175800000Y-119526190D01*
X175561904Y-120002380D02*
X175561904Y-119002380D01*
X175942857Y-119002380D01*
X176038095Y-119050000D01*
X176085714Y-119097619D01*
X176133333Y-119192857D01*
X176133333Y-119335714D01*
X176085714Y-119430952D01*
X176038095Y-119478571D01*
X175942857Y-119526190D01*
X175561904Y-119526190D01*
X176466666Y-119002380D02*
X177085714Y-119002380D01*
X176752380Y-119383333D01*
X176895238Y-119383333D01*
X176990476Y-119430952D01*
X177038095Y-119478571D01*
X177085714Y-119573809D01*
X177085714Y-119811904D01*
X177038095Y-119907142D01*
X176990476Y-119954761D01*
X176895238Y-120002380D01*
X176609523Y-120002380D01*
X176514285Y-119954761D01*
X176466666Y-119907142D01*
G04 #@! TO.C,U1*
X185638095Y-115852380D02*
X185638095Y-116661904D01*
X185685714Y-116757142D01*
X185733333Y-116804761D01*
X185828571Y-116852380D01*
X186019047Y-116852380D01*
X186114285Y-116804761D01*
X186161904Y-116757142D01*
X186209523Y-116661904D01*
X186209523Y-115852380D01*
X187209523Y-116852380D02*
X186638095Y-116852380D01*
X186923809Y-116852380D02*
X186923809Y-115852380D01*
X186828571Y-115995238D01*
X186733333Y-116090476D01*
X186638095Y-116138095D01*
G04 #@! TD*
%LPC*%
D13*
G04 #@! TO.C,C1*
G36*
X195486207Y-128626542D02*
X195517287Y-128631152D01*
X195547766Y-128638787D01*
X195577350Y-128649372D01*
X195605754Y-128662806D01*
X195632704Y-128678959D01*
X195657942Y-128697677D01*
X195681223Y-128718777D01*
X195702323Y-128742058D01*
X195721041Y-128767296D01*
X195737194Y-128794246D01*
X195750628Y-128822650D01*
X195761213Y-128852234D01*
X195768848Y-128882713D01*
X195773458Y-128913793D01*
X195775000Y-128945176D01*
X195775000Y-130129824D01*
X195773458Y-130161207D01*
X195768848Y-130192287D01*
X195761213Y-130222766D01*
X195750628Y-130252350D01*
X195737194Y-130280754D01*
X195721041Y-130307704D01*
X195702323Y-130332942D01*
X195681223Y-130356223D01*
X195657942Y-130377323D01*
X195632704Y-130396041D01*
X195605754Y-130412194D01*
X195577350Y-130425628D01*
X195547766Y-130436213D01*
X195517287Y-130443848D01*
X195486207Y-130448458D01*
X195454824Y-130450000D01*
X193945176Y-130450000D01*
X193913793Y-130448458D01*
X193882713Y-130443848D01*
X193852234Y-130436213D01*
X193822650Y-130425628D01*
X193794246Y-130412194D01*
X193767296Y-130396041D01*
X193742058Y-130377323D01*
X193718777Y-130356223D01*
X193697677Y-130332942D01*
X193678959Y-130307704D01*
X193662806Y-130280754D01*
X193649372Y-130252350D01*
X193638787Y-130222766D01*
X193631152Y-130192287D01*
X193626542Y-130161207D01*
X193625000Y-130129824D01*
X193625000Y-128945176D01*
X193626542Y-128913793D01*
X193631152Y-128882713D01*
X193638787Y-128852234D01*
X193649372Y-128822650D01*
X193662806Y-128794246D01*
X193678959Y-128767296D01*
X193697677Y-128742058D01*
X193718777Y-128718777D01*
X193742058Y-128697677D01*
X193767296Y-128678959D01*
X193794246Y-128662806D01*
X193822650Y-128649372D01*
X193852234Y-128638787D01*
X193882713Y-128631152D01*
X193913793Y-128626542D01*
X193945176Y-128625000D01*
X195454824Y-128625000D01*
X195486207Y-128626542D01*
X195486207Y-128626542D01*
G37*
D14*
X194700000Y-129537500D03*
D13*
G36*
X195486207Y-125651542D02*
X195517287Y-125656152D01*
X195547766Y-125663787D01*
X195577350Y-125674372D01*
X195605754Y-125687806D01*
X195632704Y-125703959D01*
X195657942Y-125722677D01*
X195681223Y-125743777D01*
X195702323Y-125767058D01*
X195721041Y-125792296D01*
X195737194Y-125819246D01*
X195750628Y-125847650D01*
X195761213Y-125877234D01*
X195768848Y-125907713D01*
X195773458Y-125938793D01*
X195775000Y-125970176D01*
X195775000Y-127154824D01*
X195773458Y-127186207D01*
X195768848Y-127217287D01*
X195761213Y-127247766D01*
X195750628Y-127277350D01*
X195737194Y-127305754D01*
X195721041Y-127332704D01*
X195702323Y-127357942D01*
X195681223Y-127381223D01*
X195657942Y-127402323D01*
X195632704Y-127421041D01*
X195605754Y-127437194D01*
X195577350Y-127450628D01*
X195547766Y-127461213D01*
X195517287Y-127468848D01*
X195486207Y-127473458D01*
X195454824Y-127475000D01*
X193945176Y-127475000D01*
X193913793Y-127473458D01*
X193882713Y-127468848D01*
X193852234Y-127461213D01*
X193822650Y-127450628D01*
X193794246Y-127437194D01*
X193767296Y-127421041D01*
X193742058Y-127402323D01*
X193718777Y-127381223D01*
X193697677Y-127357942D01*
X193678959Y-127332704D01*
X193662806Y-127305754D01*
X193649372Y-127277350D01*
X193638787Y-127247766D01*
X193631152Y-127217287D01*
X193626542Y-127186207D01*
X193625000Y-127154824D01*
X193625000Y-125970176D01*
X193626542Y-125938793D01*
X193631152Y-125907713D01*
X193638787Y-125877234D01*
X193649372Y-125847650D01*
X193662806Y-125819246D01*
X193678959Y-125792296D01*
X193697677Y-125767058D01*
X193718777Y-125743777D01*
X193742058Y-125722677D01*
X193767296Y-125703959D01*
X193794246Y-125687806D01*
X193822650Y-125674372D01*
X193852234Y-125663787D01*
X193882713Y-125656152D01*
X193913793Y-125651542D01*
X193945176Y-125650000D01*
X195454824Y-125650000D01*
X195486207Y-125651542D01*
X195486207Y-125651542D01*
G37*
D14*
X194700000Y-126562500D03*
G04 #@! TD*
D13*
G04 #@! TO.C,D1*
G36*
X179446071Y-113451623D02*
X179478781Y-113456475D01*
X179510857Y-113464509D01*
X179541991Y-113475649D01*
X179571884Y-113489787D01*
X179600247Y-113506787D01*
X179626807Y-113526485D01*
X179651308Y-113548692D01*
X179673515Y-113573193D01*
X179693213Y-113599753D01*
X179710213Y-113628116D01*
X179724351Y-113658009D01*
X179735491Y-113689143D01*
X179743525Y-113721219D01*
X179748377Y-113753929D01*
X179750000Y-113786956D01*
X179750000Y-114663044D01*
X179748377Y-114696071D01*
X179743525Y-114728781D01*
X179735491Y-114760857D01*
X179724351Y-114791991D01*
X179710213Y-114821884D01*
X179693213Y-114850247D01*
X179673515Y-114876807D01*
X179651308Y-114901308D01*
X179626807Y-114923515D01*
X179600247Y-114943213D01*
X179571884Y-114960213D01*
X179541991Y-114974351D01*
X179510857Y-114985491D01*
X179478781Y-114993525D01*
X179446071Y-114998377D01*
X179413044Y-115000000D01*
X178286956Y-115000000D01*
X178253929Y-114998377D01*
X178221219Y-114993525D01*
X178189143Y-114985491D01*
X178158009Y-114974351D01*
X178128116Y-114960213D01*
X178099753Y-114943213D01*
X178073193Y-114923515D01*
X178048692Y-114901308D01*
X178026485Y-114876807D01*
X178006787Y-114850247D01*
X177989787Y-114821884D01*
X177975649Y-114791991D01*
X177964509Y-114760857D01*
X177956475Y-114728781D01*
X177951623Y-114696071D01*
X177950000Y-114663044D01*
X177950000Y-113786956D01*
X177951623Y-113753929D01*
X177956475Y-113721219D01*
X177964509Y-113689143D01*
X177975649Y-113658009D01*
X177989787Y-113628116D01*
X178006787Y-113599753D01*
X178026485Y-113573193D01*
X178048692Y-113548692D01*
X178073193Y-113526485D01*
X178099753Y-113506787D01*
X178128116Y-113489787D01*
X178158009Y-113475649D01*
X178189143Y-113464509D01*
X178221219Y-113456475D01*
X178253929Y-113451623D01*
X178286956Y-113450000D01*
X179413044Y-113450000D01*
X179446071Y-113451623D01*
X179446071Y-113451623D01*
G37*
D15*
X178850000Y-114225000D03*
D13*
G36*
X179446071Y-111401623D02*
X179478781Y-111406475D01*
X179510857Y-111414509D01*
X179541991Y-111425649D01*
X179571884Y-111439787D01*
X179600247Y-111456787D01*
X179626807Y-111476485D01*
X179651308Y-111498692D01*
X179673515Y-111523193D01*
X179693213Y-111549753D01*
X179710213Y-111578116D01*
X179724351Y-111608009D01*
X179735491Y-111639143D01*
X179743525Y-111671219D01*
X179748377Y-111703929D01*
X179750000Y-111736956D01*
X179750000Y-112613044D01*
X179748377Y-112646071D01*
X179743525Y-112678781D01*
X179735491Y-112710857D01*
X179724351Y-112741991D01*
X179710213Y-112771884D01*
X179693213Y-112800247D01*
X179673515Y-112826807D01*
X179651308Y-112851308D01*
X179626807Y-112873515D01*
X179600247Y-112893213D01*
X179571884Y-112910213D01*
X179541991Y-112924351D01*
X179510857Y-112935491D01*
X179478781Y-112943525D01*
X179446071Y-112948377D01*
X179413044Y-112950000D01*
X178286956Y-112950000D01*
X178253929Y-112948377D01*
X178221219Y-112943525D01*
X178189143Y-112935491D01*
X178158009Y-112924351D01*
X178128116Y-112910213D01*
X178099753Y-112893213D01*
X178073193Y-112873515D01*
X178048692Y-112851308D01*
X178026485Y-112826807D01*
X178006787Y-112800247D01*
X177989787Y-112771884D01*
X177975649Y-112741991D01*
X177964509Y-112710857D01*
X177956475Y-112678781D01*
X177951623Y-112646071D01*
X177950000Y-112613044D01*
X177950000Y-111736956D01*
X177951623Y-111703929D01*
X177956475Y-111671219D01*
X177964509Y-111639143D01*
X177975649Y-111608009D01*
X177989787Y-111578116D01*
X178006787Y-111549753D01*
X178026485Y-111523193D01*
X178048692Y-111498692D01*
X178073193Y-111476485D01*
X178099753Y-111456787D01*
X178128116Y-111439787D01*
X178158009Y-111425649D01*
X178189143Y-111414509D01*
X178221219Y-111406475D01*
X178253929Y-111401623D01*
X178286956Y-111400000D01*
X179413044Y-111400000D01*
X179446071Y-111401623D01*
X179446071Y-111401623D01*
G37*
D15*
X178850000Y-112175000D03*
G04 #@! TD*
D13*
G04 #@! TO.C,R1*
G36*
X195296071Y-113501623D02*
X195328781Y-113506475D01*
X195360857Y-113514509D01*
X195391991Y-113525649D01*
X195421884Y-113539787D01*
X195450247Y-113556787D01*
X195476807Y-113576485D01*
X195501308Y-113598692D01*
X195523515Y-113623193D01*
X195543213Y-113649753D01*
X195560213Y-113678116D01*
X195574351Y-113708009D01*
X195585491Y-113739143D01*
X195593525Y-113771219D01*
X195598377Y-113803929D01*
X195600000Y-113836956D01*
X195600000Y-114713044D01*
X195598377Y-114746071D01*
X195593525Y-114778781D01*
X195585491Y-114810857D01*
X195574351Y-114841991D01*
X195560213Y-114871884D01*
X195543213Y-114900247D01*
X195523515Y-114926807D01*
X195501308Y-114951308D01*
X195476807Y-114973515D01*
X195450247Y-114993213D01*
X195421884Y-115010213D01*
X195391991Y-115024351D01*
X195360857Y-115035491D01*
X195328781Y-115043525D01*
X195296071Y-115048377D01*
X195263044Y-115050000D01*
X194136956Y-115050000D01*
X194103929Y-115048377D01*
X194071219Y-115043525D01*
X194039143Y-115035491D01*
X194008009Y-115024351D01*
X193978116Y-115010213D01*
X193949753Y-114993213D01*
X193923193Y-114973515D01*
X193898692Y-114951308D01*
X193876485Y-114926807D01*
X193856787Y-114900247D01*
X193839787Y-114871884D01*
X193825649Y-114841991D01*
X193814509Y-114810857D01*
X193806475Y-114778781D01*
X193801623Y-114746071D01*
X193800000Y-114713044D01*
X193800000Y-113836956D01*
X193801623Y-113803929D01*
X193806475Y-113771219D01*
X193814509Y-113739143D01*
X193825649Y-113708009D01*
X193839787Y-113678116D01*
X193856787Y-113649753D01*
X193876485Y-113623193D01*
X193898692Y-113598692D01*
X193923193Y-113576485D01*
X193949753Y-113556787D01*
X193978116Y-113539787D01*
X194008009Y-113525649D01*
X194039143Y-113514509D01*
X194071219Y-113506475D01*
X194103929Y-113501623D01*
X194136956Y-113500000D01*
X195263044Y-113500000D01*
X195296071Y-113501623D01*
X195296071Y-113501623D01*
G37*
D15*
X194700000Y-114275000D03*
D13*
G36*
X195296071Y-111451623D02*
X195328781Y-111456475D01*
X195360857Y-111464509D01*
X195391991Y-111475649D01*
X195421884Y-111489787D01*
X195450247Y-111506787D01*
X195476807Y-111526485D01*
X195501308Y-111548692D01*
X195523515Y-111573193D01*
X195543213Y-111599753D01*
X195560213Y-111628116D01*
X195574351Y-111658009D01*
X195585491Y-111689143D01*
X195593525Y-111721219D01*
X195598377Y-111753929D01*
X195600000Y-111786956D01*
X195600000Y-112663044D01*
X195598377Y-112696071D01*
X195593525Y-112728781D01*
X195585491Y-112760857D01*
X195574351Y-112791991D01*
X195560213Y-112821884D01*
X195543213Y-112850247D01*
X195523515Y-112876807D01*
X195501308Y-112901308D01*
X195476807Y-112923515D01*
X195450247Y-112943213D01*
X195421884Y-112960213D01*
X195391991Y-112974351D01*
X195360857Y-112985491D01*
X195328781Y-112993525D01*
X195296071Y-112998377D01*
X195263044Y-113000000D01*
X194136956Y-113000000D01*
X194103929Y-112998377D01*
X194071219Y-112993525D01*
X194039143Y-112985491D01*
X194008009Y-112974351D01*
X193978116Y-112960213D01*
X193949753Y-112943213D01*
X193923193Y-112923515D01*
X193898692Y-112901308D01*
X193876485Y-112876807D01*
X193856787Y-112850247D01*
X193839787Y-112821884D01*
X193825649Y-112791991D01*
X193814509Y-112760857D01*
X193806475Y-112728781D01*
X193801623Y-112696071D01*
X193800000Y-112663044D01*
X193800000Y-111786956D01*
X193801623Y-111753929D01*
X193806475Y-111721219D01*
X193814509Y-111689143D01*
X193825649Y-111658009D01*
X193839787Y-111628116D01*
X193856787Y-111599753D01*
X193876485Y-111573193D01*
X193898692Y-111548692D01*
X193923193Y-111526485D01*
X193949753Y-111506787D01*
X193978116Y-111489787D01*
X194008009Y-111475649D01*
X194039143Y-111464509D01*
X194071219Y-111456475D01*
X194103929Y-111451623D01*
X194136956Y-111450000D01*
X195263044Y-111450000D01*
X195296071Y-111451623D01*
X195296071Y-111451623D01*
G37*
D15*
X194700000Y-112225000D03*
G04 #@! TD*
D13*
G04 #@! TO.C,R2*
G36*
X195296071Y-120501623D02*
X195328781Y-120506475D01*
X195360857Y-120514509D01*
X195391991Y-120525649D01*
X195421884Y-120539787D01*
X195450247Y-120556787D01*
X195476807Y-120576485D01*
X195501308Y-120598692D01*
X195523515Y-120623193D01*
X195543213Y-120649753D01*
X195560213Y-120678116D01*
X195574351Y-120708009D01*
X195585491Y-120739143D01*
X195593525Y-120771219D01*
X195598377Y-120803929D01*
X195600000Y-120836956D01*
X195600000Y-121713044D01*
X195598377Y-121746071D01*
X195593525Y-121778781D01*
X195585491Y-121810857D01*
X195574351Y-121841991D01*
X195560213Y-121871884D01*
X195543213Y-121900247D01*
X195523515Y-121926807D01*
X195501308Y-121951308D01*
X195476807Y-121973515D01*
X195450247Y-121993213D01*
X195421884Y-122010213D01*
X195391991Y-122024351D01*
X195360857Y-122035491D01*
X195328781Y-122043525D01*
X195296071Y-122048377D01*
X195263044Y-122050000D01*
X194136956Y-122050000D01*
X194103929Y-122048377D01*
X194071219Y-122043525D01*
X194039143Y-122035491D01*
X194008009Y-122024351D01*
X193978116Y-122010213D01*
X193949753Y-121993213D01*
X193923193Y-121973515D01*
X193898692Y-121951308D01*
X193876485Y-121926807D01*
X193856787Y-121900247D01*
X193839787Y-121871884D01*
X193825649Y-121841991D01*
X193814509Y-121810857D01*
X193806475Y-121778781D01*
X193801623Y-121746071D01*
X193800000Y-121713044D01*
X193800000Y-120836956D01*
X193801623Y-120803929D01*
X193806475Y-120771219D01*
X193814509Y-120739143D01*
X193825649Y-120708009D01*
X193839787Y-120678116D01*
X193856787Y-120649753D01*
X193876485Y-120623193D01*
X193898692Y-120598692D01*
X193923193Y-120576485D01*
X193949753Y-120556787D01*
X193978116Y-120539787D01*
X194008009Y-120525649D01*
X194039143Y-120514509D01*
X194071219Y-120506475D01*
X194103929Y-120501623D01*
X194136956Y-120500000D01*
X195263044Y-120500000D01*
X195296071Y-120501623D01*
X195296071Y-120501623D01*
G37*
D15*
X194700000Y-121275000D03*
D13*
G36*
X195296071Y-118451623D02*
X195328781Y-118456475D01*
X195360857Y-118464509D01*
X195391991Y-118475649D01*
X195421884Y-118489787D01*
X195450247Y-118506787D01*
X195476807Y-118526485D01*
X195501308Y-118548692D01*
X195523515Y-118573193D01*
X195543213Y-118599753D01*
X195560213Y-118628116D01*
X195574351Y-118658009D01*
X195585491Y-118689143D01*
X195593525Y-118721219D01*
X195598377Y-118753929D01*
X195600000Y-118786956D01*
X195600000Y-119663044D01*
X195598377Y-119696071D01*
X195593525Y-119728781D01*
X195585491Y-119760857D01*
X195574351Y-119791991D01*
X195560213Y-119821884D01*
X195543213Y-119850247D01*
X195523515Y-119876807D01*
X195501308Y-119901308D01*
X195476807Y-119923515D01*
X195450247Y-119943213D01*
X195421884Y-119960213D01*
X195391991Y-119974351D01*
X195360857Y-119985491D01*
X195328781Y-119993525D01*
X195296071Y-119998377D01*
X195263044Y-120000000D01*
X194136956Y-120000000D01*
X194103929Y-119998377D01*
X194071219Y-119993525D01*
X194039143Y-119985491D01*
X194008009Y-119974351D01*
X193978116Y-119960213D01*
X193949753Y-119943213D01*
X193923193Y-119923515D01*
X193898692Y-119901308D01*
X193876485Y-119876807D01*
X193856787Y-119850247D01*
X193839787Y-119821884D01*
X193825649Y-119791991D01*
X193814509Y-119760857D01*
X193806475Y-119728781D01*
X193801623Y-119696071D01*
X193800000Y-119663044D01*
X193800000Y-118786956D01*
X193801623Y-118753929D01*
X193806475Y-118721219D01*
X193814509Y-118689143D01*
X193825649Y-118658009D01*
X193839787Y-118628116D01*
X193856787Y-118599753D01*
X193876485Y-118573193D01*
X193898692Y-118548692D01*
X193923193Y-118526485D01*
X193949753Y-118506787D01*
X193978116Y-118489787D01*
X194008009Y-118475649D01*
X194039143Y-118464509D01*
X194071219Y-118456475D01*
X194103929Y-118451623D01*
X194136956Y-118450000D01*
X195263044Y-118450000D01*
X195296071Y-118451623D01*
X195296071Y-118451623D01*
G37*
D15*
X194700000Y-119225000D03*
G04 #@! TD*
D13*
G04 #@! TO.C,R3*
G36*
X179446071Y-119751623D02*
X179478781Y-119756475D01*
X179510857Y-119764509D01*
X179541991Y-119775649D01*
X179571884Y-119789787D01*
X179600247Y-119806787D01*
X179626807Y-119826485D01*
X179651308Y-119848692D01*
X179673515Y-119873193D01*
X179693213Y-119899753D01*
X179710213Y-119928116D01*
X179724351Y-119958009D01*
X179735491Y-119989143D01*
X179743525Y-120021219D01*
X179748377Y-120053929D01*
X179750000Y-120086956D01*
X179750000Y-120963044D01*
X179748377Y-120996071D01*
X179743525Y-121028781D01*
X179735491Y-121060857D01*
X179724351Y-121091991D01*
X179710213Y-121121884D01*
X179693213Y-121150247D01*
X179673515Y-121176807D01*
X179651308Y-121201308D01*
X179626807Y-121223515D01*
X179600247Y-121243213D01*
X179571884Y-121260213D01*
X179541991Y-121274351D01*
X179510857Y-121285491D01*
X179478781Y-121293525D01*
X179446071Y-121298377D01*
X179413044Y-121300000D01*
X178286956Y-121300000D01*
X178253929Y-121298377D01*
X178221219Y-121293525D01*
X178189143Y-121285491D01*
X178158009Y-121274351D01*
X178128116Y-121260213D01*
X178099753Y-121243213D01*
X178073193Y-121223515D01*
X178048692Y-121201308D01*
X178026485Y-121176807D01*
X178006787Y-121150247D01*
X177989787Y-121121884D01*
X177975649Y-121091991D01*
X177964509Y-121060857D01*
X177956475Y-121028781D01*
X177951623Y-120996071D01*
X177950000Y-120963044D01*
X177950000Y-120086956D01*
X177951623Y-120053929D01*
X177956475Y-120021219D01*
X177964509Y-119989143D01*
X177975649Y-119958009D01*
X177989787Y-119928116D01*
X178006787Y-119899753D01*
X178026485Y-119873193D01*
X178048692Y-119848692D01*
X178073193Y-119826485D01*
X178099753Y-119806787D01*
X178128116Y-119789787D01*
X178158009Y-119775649D01*
X178189143Y-119764509D01*
X178221219Y-119756475D01*
X178253929Y-119751623D01*
X178286956Y-119750000D01*
X179413044Y-119750000D01*
X179446071Y-119751623D01*
X179446071Y-119751623D01*
G37*
D15*
X178850000Y-120525000D03*
D13*
G36*
X179446071Y-117701623D02*
X179478781Y-117706475D01*
X179510857Y-117714509D01*
X179541991Y-117725649D01*
X179571884Y-117739787D01*
X179600247Y-117756787D01*
X179626807Y-117776485D01*
X179651308Y-117798692D01*
X179673515Y-117823193D01*
X179693213Y-117849753D01*
X179710213Y-117878116D01*
X179724351Y-117908009D01*
X179735491Y-117939143D01*
X179743525Y-117971219D01*
X179748377Y-118003929D01*
X179750000Y-118036956D01*
X179750000Y-118913044D01*
X179748377Y-118946071D01*
X179743525Y-118978781D01*
X179735491Y-119010857D01*
X179724351Y-119041991D01*
X179710213Y-119071884D01*
X179693213Y-119100247D01*
X179673515Y-119126807D01*
X179651308Y-119151308D01*
X179626807Y-119173515D01*
X179600247Y-119193213D01*
X179571884Y-119210213D01*
X179541991Y-119224351D01*
X179510857Y-119235491D01*
X179478781Y-119243525D01*
X179446071Y-119248377D01*
X179413044Y-119250000D01*
X178286956Y-119250000D01*
X178253929Y-119248377D01*
X178221219Y-119243525D01*
X178189143Y-119235491D01*
X178158009Y-119224351D01*
X178128116Y-119210213D01*
X178099753Y-119193213D01*
X178073193Y-119173515D01*
X178048692Y-119151308D01*
X178026485Y-119126807D01*
X178006787Y-119100247D01*
X177989787Y-119071884D01*
X177975649Y-119041991D01*
X177964509Y-119010857D01*
X177956475Y-118978781D01*
X177951623Y-118946071D01*
X177950000Y-118913044D01*
X177950000Y-118036956D01*
X177951623Y-118003929D01*
X177956475Y-117971219D01*
X177964509Y-117939143D01*
X177975649Y-117908009D01*
X177989787Y-117878116D01*
X178006787Y-117849753D01*
X178026485Y-117823193D01*
X178048692Y-117798692D01*
X178073193Y-117776485D01*
X178099753Y-117756787D01*
X178128116Y-117739787D01*
X178158009Y-117725649D01*
X178189143Y-117714509D01*
X178221219Y-117706475D01*
X178253929Y-117701623D01*
X178286956Y-117700000D01*
X179413044Y-117700000D01*
X179446071Y-117701623D01*
X179446071Y-117701623D01*
G37*
D15*
X178850000Y-118475000D03*
G04 #@! TD*
D16*
G04 #@! TO.C,U1*
X183700000Y-117995000D03*
X183700000Y-119265000D03*
X183700000Y-120535000D03*
X183700000Y-121805000D03*
X189100000Y-121805000D03*
X189100000Y-120535000D03*
X189100000Y-119265000D03*
X189100000Y-117995000D03*
G04 #@! TD*
M02*
