G04 #@! TF.GenerationSoftware,KiCad,Pcbnew,(5.0.0)*
G04 #@! TF.CreationDate,2018-10-15T00:14:37+02:00*
G04 #@! TF.ProjectId,GettingToBlinky,47657474696E67546F426C696E6B792E,rev?*
G04 #@! TF.SameCoordinates,Original*
G04 #@! TF.FileFunction,Soldermask,Top*
G04 #@! TF.FilePolarity,Negative*
%FSLAX46Y46*%
G04 Gerber Fmt 4.6, Leading zero omitted, Abs format (unit mm)*
G04 Created by KiCad (PCBNEW (5.0.0)) date 10/15/18 00:14:37*
%MOMM*%
%LPD*%
G01*
G04 APERTURE LIST*
%ADD10C,0.100000*%
%ADD11C,1.825000*%
%ADD12C,1.550000*%
%ADD13R,1.950000X1.000000*%
G04 APERTURE END LIST*
D10*
G04 #@! TO.C,C1*
G36*
X195486207Y-128626542D02*
X195517287Y-128631152D01*
X195547766Y-128638787D01*
X195577350Y-128649372D01*
X195605754Y-128662806D01*
X195632704Y-128678959D01*
X195657942Y-128697677D01*
X195681223Y-128718777D01*
X195702323Y-128742058D01*
X195721041Y-128767296D01*
X195737194Y-128794246D01*
X195750628Y-128822650D01*
X195761213Y-128852234D01*
X195768848Y-128882713D01*
X195773458Y-128913793D01*
X195775000Y-128945176D01*
X195775000Y-130129824D01*
X195773458Y-130161207D01*
X195768848Y-130192287D01*
X195761213Y-130222766D01*
X195750628Y-130252350D01*
X195737194Y-130280754D01*
X195721041Y-130307704D01*
X195702323Y-130332942D01*
X195681223Y-130356223D01*
X195657942Y-130377323D01*
X195632704Y-130396041D01*
X195605754Y-130412194D01*
X195577350Y-130425628D01*
X195547766Y-130436213D01*
X195517287Y-130443848D01*
X195486207Y-130448458D01*
X195454824Y-130450000D01*
X193945176Y-130450000D01*
X193913793Y-130448458D01*
X193882713Y-130443848D01*
X193852234Y-130436213D01*
X193822650Y-130425628D01*
X193794246Y-130412194D01*
X193767296Y-130396041D01*
X193742058Y-130377323D01*
X193718777Y-130356223D01*
X193697677Y-130332942D01*
X193678959Y-130307704D01*
X193662806Y-130280754D01*
X193649372Y-130252350D01*
X193638787Y-130222766D01*
X193631152Y-130192287D01*
X193626542Y-130161207D01*
X193625000Y-130129824D01*
X193625000Y-128945176D01*
X193626542Y-128913793D01*
X193631152Y-128882713D01*
X193638787Y-128852234D01*
X193649372Y-128822650D01*
X193662806Y-128794246D01*
X193678959Y-128767296D01*
X193697677Y-128742058D01*
X193718777Y-128718777D01*
X193742058Y-128697677D01*
X193767296Y-128678959D01*
X193794246Y-128662806D01*
X193822650Y-128649372D01*
X193852234Y-128638787D01*
X193882713Y-128631152D01*
X193913793Y-128626542D01*
X193945176Y-128625000D01*
X195454824Y-128625000D01*
X195486207Y-128626542D01*
X195486207Y-128626542D01*
G37*
D11*
X194700000Y-129537500D03*
D10*
G36*
X195486207Y-125651542D02*
X195517287Y-125656152D01*
X195547766Y-125663787D01*
X195577350Y-125674372D01*
X195605754Y-125687806D01*
X195632704Y-125703959D01*
X195657942Y-125722677D01*
X195681223Y-125743777D01*
X195702323Y-125767058D01*
X195721041Y-125792296D01*
X195737194Y-125819246D01*
X195750628Y-125847650D01*
X195761213Y-125877234D01*
X195768848Y-125907713D01*
X195773458Y-125938793D01*
X195775000Y-125970176D01*
X195775000Y-127154824D01*
X195773458Y-127186207D01*
X195768848Y-127217287D01*
X195761213Y-127247766D01*
X195750628Y-127277350D01*
X195737194Y-127305754D01*
X195721041Y-127332704D01*
X195702323Y-127357942D01*
X195681223Y-127381223D01*
X195657942Y-127402323D01*
X195632704Y-127421041D01*
X195605754Y-127437194D01*
X195577350Y-127450628D01*
X195547766Y-127461213D01*
X195517287Y-127468848D01*
X195486207Y-127473458D01*
X195454824Y-127475000D01*
X193945176Y-127475000D01*
X193913793Y-127473458D01*
X193882713Y-127468848D01*
X193852234Y-127461213D01*
X193822650Y-127450628D01*
X193794246Y-127437194D01*
X193767296Y-127421041D01*
X193742058Y-127402323D01*
X193718777Y-127381223D01*
X193697677Y-127357942D01*
X193678959Y-127332704D01*
X193662806Y-127305754D01*
X193649372Y-127277350D01*
X193638787Y-127247766D01*
X193631152Y-127217287D01*
X193626542Y-127186207D01*
X193625000Y-127154824D01*
X193625000Y-125970176D01*
X193626542Y-125938793D01*
X193631152Y-125907713D01*
X193638787Y-125877234D01*
X193649372Y-125847650D01*
X193662806Y-125819246D01*
X193678959Y-125792296D01*
X193697677Y-125767058D01*
X193718777Y-125743777D01*
X193742058Y-125722677D01*
X193767296Y-125703959D01*
X193794246Y-125687806D01*
X193822650Y-125674372D01*
X193852234Y-125663787D01*
X193882713Y-125656152D01*
X193913793Y-125651542D01*
X193945176Y-125650000D01*
X195454824Y-125650000D01*
X195486207Y-125651542D01*
X195486207Y-125651542D01*
G37*
D11*
X194700000Y-126562500D03*
G04 #@! TD*
D10*
G04 #@! TO.C,D1*
G36*
X179446071Y-113451623D02*
X179478781Y-113456475D01*
X179510857Y-113464509D01*
X179541991Y-113475649D01*
X179571884Y-113489787D01*
X179600247Y-113506787D01*
X179626807Y-113526485D01*
X179651308Y-113548692D01*
X179673515Y-113573193D01*
X179693213Y-113599753D01*
X179710213Y-113628116D01*
X179724351Y-113658009D01*
X179735491Y-113689143D01*
X179743525Y-113721219D01*
X179748377Y-113753929D01*
X179750000Y-113786956D01*
X179750000Y-114663044D01*
X179748377Y-114696071D01*
X179743525Y-114728781D01*
X179735491Y-114760857D01*
X179724351Y-114791991D01*
X179710213Y-114821884D01*
X179693213Y-114850247D01*
X179673515Y-114876807D01*
X179651308Y-114901308D01*
X179626807Y-114923515D01*
X179600247Y-114943213D01*
X179571884Y-114960213D01*
X179541991Y-114974351D01*
X179510857Y-114985491D01*
X179478781Y-114993525D01*
X179446071Y-114998377D01*
X179413044Y-115000000D01*
X178286956Y-115000000D01*
X178253929Y-114998377D01*
X178221219Y-114993525D01*
X178189143Y-114985491D01*
X178158009Y-114974351D01*
X178128116Y-114960213D01*
X178099753Y-114943213D01*
X178073193Y-114923515D01*
X178048692Y-114901308D01*
X178026485Y-114876807D01*
X178006787Y-114850247D01*
X177989787Y-114821884D01*
X177975649Y-114791991D01*
X177964509Y-114760857D01*
X177956475Y-114728781D01*
X177951623Y-114696071D01*
X177950000Y-114663044D01*
X177950000Y-113786956D01*
X177951623Y-113753929D01*
X177956475Y-113721219D01*
X177964509Y-113689143D01*
X177975649Y-113658009D01*
X177989787Y-113628116D01*
X178006787Y-113599753D01*
X178026485Y-113573193D01*
X178048692Y-113548692D01*
X178073193Y-113526485D01*
X178099753Y-113506787D01*
X178128116Y-113489787D01*
X178158009Y-113475649D01*
X178189143Y-113464509D01*
X178221219Y-113456475D01*
X178253929Y-113451623D01*
X178286956Y-113450000D01*
X179413044Y-113450000D01*
X179446071Y-113451623D01*
X179446071Y-113451623D01*
G37*
D12*
X178850000Y-114225000D03*
D10*
G36*
X179446071Y-111401623D02*
X179478781Y-111406475D01*
X179510857Y-111414509D01*
X179541991Y-111425649D01*
X179571884Y-111439787D01*
X179600247Y-111456787D01*
X179626807Y-111476485D01*
X179651308Y-111498692D01*
X179673515Y-111523193D01*
X179693213Y-111549753D01*
X179710213Y-111578116D01*
X179724351Y-111608009D01*
X179735491Y-111639143D01*
X179743525Y-111671219D01*
X179748377Y-111703929D01*
X179750000Y-111736956D01*
X179750000Y-112613044D01*
X179748377Y-112646071D01*
X179743525Y-112678781D01*
X179735491Y-112710857D01*
X179724351Y-112741991D01*
X179710213Y-112771884D01*
X179693213Y-112800247D01*
X179673515Y-112826807D01*
X179651308Y-112851308D01*
X179626807Y-112873515D01*
X179600247Y-112893213D01*
X179571884Y-112910213D01*
X179541991Y-112924351D01*
X179510857Y-112935491D01*
X179478781Y-112943525D01*
X179446071Y-112948377D01*
X179413044Y-112950000D01*
X178286956Y-112950000D01*
X178253929Y-112948377D01*
X178221219Y-112943525D01*
X178189143Y-112935491D01*
X178158009Y-112924351D01*
X178128116Y-112910213D01*
X178099753Y-112893213D01*
X178073193Y-112873515D01*
X178048692Y-112851308D01*
X178026485Y-112826807D01*
X178006787Y-112800247D01*
X177989787Y-112771884D01*
X177975649Y-112741991D01*
X177964509Y-112710857D01*
X177956475Y-112678781D01*
X177951623Y-112646071D01*
X177950000Y-112613044D01*
X177950000Y-111736956D01*
X177951623Y-111703929D01*
X177956475Y-111671219D01*
X177964509Y-111639143D01*
X177975649Y-111608009D01*
X177989787Y-111578116D01*
X178006787Y-111549753D01*
X178026485Y-111523193D01*
X178048692Y-111498692D01*
X178073193Y-111476485D01*
X178099753Y-111456787D01*
X178128116Y-111439787D01*
X178158009Y-111425649D01*
X178189143Y-111414509D01*
X178221219Y-111406475D01*
X178253929Y-111401623D01*
X178286956Y-111400000D01*
X179413044Y-111400000D01*
X179446071Y-111401623D01*
X179446071Y-111401623D01*
G37*
D12*
X178850000Y-112175000D03*
G04 #@! TD*
D10*
G04 #@! TO.C,R1*
G36*
X195296071Y-113501623D02*
X195328781Y-113506475D01*
X195360857Y-113514509D01*
X195391991Y-113525649D01*
X195421884Y-113539787D01*
X195450247Y-113556787D01*
X195476807Y-113576485D01*
X195501308Y-113598692D01*
X195523515Y-113623193D01*
X195543213Y-113649753D01*
X195560213Y-113678116D01*
X195574351Y-113708009D01*
X195585491Y-113739143D01*
X195593525Y-113771219D01*
X195598377Y-113803929D01*
X195600000Y-113836956D01*
X195600000Y-114713044D01*
X195598377Y-114746071D01*
X195593525Y-114778781D01*
X195585491Y-114810857D01*
X195574351Y-114841991D01*
X195560213Y-114871884D01*
X195543213Y-114900247D01*
X195523515Y-114926807D01*
X195501308Y-114951308D01*
X195476807Y-114973515D01*
X195450247Y-114993213D01*
X195421884Y-115010213D01*
X195391991Y-115024351D01*
X195360857Y-115035491D01*
X195328781Y-115043525D01*
X195296071Y-115048377D01*
X195263044Y-115050000D01*
X194136956Y-115050000D01*
X194103929Y-115048377D01*
X194071219Y-115043525D01*
X194039143Y-115035491D01*
X194008009Y-115024351D01*
X193978116Y-115010213D01*
X193949753Y-114993213D01*
X193923193Y-114973515D01*
X193898692Y-114951308D01*
X193876485Y-114926807D01*
X193856787Y-114900247D01*
X193839787Y-114871884D01*
X193825649Y-114841991D01*
X193814509Y-114810857D01*
X193806475Y-114778781D01*
X193801623Y-114746071D01*
X193800000Y-114713044D01*
X193800000Y-113836956D01*
X193801623Y-113803929D01*
X193806475Y-113771219D01*
X193814509Y-113739143D01*
X193825649Y-113708009D01*
X193839787Y-113678116D01*
X193856787Y-113649753D01*
X193876485Y-113623193D01*
X193898692Y-113598692D01*
X193923193Y-113576485D01*
X193949753Y-113556787D01*
X193978116Y-113539787D01*
X194008009Y-113525649D01*
X194039143Y-113514509D01*
X194071219Y-113506475D01*
X194103929Y-113501623D01*
X194136956Y-113500000D01*
X195263044Y-113500000D01*
X195296071Y-113501623D01*
X195296071Y-113501623D01*
G37*
D12*
X194700000Y-114275000D03*
D10*
G36*
X195296071Y-111451623D02*
X195328781Y-111456475D01*
X195360857Y-111464509D01*
X195391991Y-111475649D01*
X195421884Y-111489787D01*
X195450247Y-111506787D01*
X195476807Y-111526485D01*
X195501308Y-111548692D01*
X195523515Y-111573193D01*
X195543213Y-111599753D01*
X195560213Y-111628116D01*
X195574351Y-111658009D01*
X195585491Y-111689143D01*
X195593525Y-111721219D01*
X195598377Y-111753929D01*
X195600000Y-111786956D01*
X195600000Y-112663044D01*
X195598377Y-112696071D01*
X195593525Y-112728781D01*
X195585491Y-112760857D01*
X195574351Y-112791991D01*
X195560213Y-112821884D01*
X195543213Y-112850247D01*
X195523515Y-112876807D01*
X195501308Y-112901308D01*
X195476807Y-112923515D01*
X195450247Y-112943213D01*
X195421884Y-112960213D01*
X195391991Y-112974351D01*
X195360857Y-112985491D01*
X195328781Y-112993525D01*
X195296071Y-112998377D01*
X195263044Y-113000000D01*
X194136956Y-113000000D01*
X194103929Y-112998377D01*
X194071219Y-112993525D01*
X194039143Y-112985491D01*
X194008009Y-112974351D01*
X193978116Y-112960213D01*
X193949753Y-112943213D01*
X193923193Y-112923515D01*
X193898692Y-112901308D01*
X193876485Y-112876807D01*
X193856787Y-112850247D01*
X193839787Y-112821884D01*
X193825649Y-112791991D01*
X193814509Y-112760857D01*
X193806475Y-112728781D01*
X193801623Y-112696071D01*
X193800000Y-112663044D01*
X193800000Y-111786956D01*
X193801623Y-111753929D01*
X193806475Y-111721219D01*
X193814509Y-111689143D01*
X193825649Y-111658009D01*
X193839787Y-111628116D01*
X193856787Y-111599753D01*
X193876485Y-111573193D01*
X193898692Y-111548692D01*
X193923193Y-111526485D01*
X193949753Y-111506787D01*
X193978116Y-111489787D01*
X194008009Y-111475649D01*
X194039143Y-111464509D01*
X194071219Y-111456475D01*
X194103929Y-111451623D01*
X194136956Y-111450000D01*
X195263044Y-111450000D01*
X195296071Y-111451623D01*
X195296071Y-111451623D01*
G37*
D12*
X194700000Y-112225000D03*
G04 #@! TD*
D10*
G04 #@! TO.C,R2*
G36*
X195296071Y-120501623D02*
X195328781Y-120506475D01*
X195360857Y-120514509D01*
X195391991Y-120525649D01*
X195421884Y-120539787D01*
X195450247Y-120556787D01*
X195476807Y-120576485D01*
X195501308Y-120598692D01*
X195523515Y-120623193D01*
X195543213Y-120649753D01*
X195560213Y-120678116D01*
X195574351Y-120708009D01*
X195585491Y-120739143D01*
X195593525Y-120771219D01*
X195598377Y-120803929D01*
X195600000Y-120836956D01*
X195600000Y-121713044D01*
X195598377Y-121746071D01*
X195593525Y-121778781D01*
X195585491Y-121810857D01*
X195574351Y-121841991D01*
X195560213Y-121871884D01*
X195543213Y-121900247D01*
X195523515Y-121926807D01*
X195501308Y-121951308D01*
X195476807Y-121973515D01*
X195450247Y-121993213D01*
X195421884Y-122010213D01*
X195391991Y-122024351D01*
X195360857Y-122035491D01*
X195328781Y-122043525D01*
X195296071Y-122048377D01*
X195263044Y-122050000D01*
X194136956Y-122050000D01*
X194103929Y-122048377D01*
X194071219Y-122043525D01*
X194039143Y-122035491D01*
X194008009Y-122024351D01*
X193978116Y-122010213D01*
X193949753Y-121993213D01*
X193923193Y-121973515D01*
X193898692Y-121951308D01*
X193876485Y-121926807D01*
X193856787Y-121900247D01*
X193839787Y-121871884D01*
X193825649Y-121841991D01*
X193814509Y-121810857D01*
X193806475Y-121778781D01*
X193801623Y-121746071D01*
X193800000Y-121713044D01*
X193800000Y-120836956D01*
X193801623Y-120803929D01*
X193806475Y-120771219D01*
X193814509Y-120739143D01*
X193825649Y-120708009D01*
X193839787Y-120678116D01*
X193856787Y-120649753D01*
X193876485Y-120623193D01*
X193898692Y-120598692D01*
X193923193Y-120576485D01*
X193949753Y-120556787D01*
X193978116Y-120539787D01*
X194008009Y-120525649D01*
X194039143Y-120514509D01*
X194071219Y-120506475D01*
X194103929Y-120501623D01*
X194136956Y-120500000D01*
X195263044Y-120500000D01*
X195296071Y-120501623D01*
X195296071Y-120501623D01*
G37*
D12*
X194700000Y-121275000D03*
D10*
G36*
X195296071Y-118451623D02*
X195328781Y-118456475D01*
X195360857Y-118464509D01*
X195391991Y-118475649D01*
X195421884Y-118489787D01*
X195450247Y-118506787D01*
X195476807Y-118526485D01*
X195501308Y-118548692D01*
X195523515Y-118573193D01*
X195543213Y-118599753D01*
X195560213Y-118628116D01*
X195574351Y-118658009D01*
X195585491Y-118689143D01*
X195593525Y-118721219D01*
X195598377Y-118753929D01*
X195600000Y-118786956D01*
X195600000Y-119663044D01*
X195598377Y-119696071D01*
X195593525Y-119728781D01*
X195585491Y-119760857D01*
X195574351Y-119791991D01*
X195560213Y-119821884D01*
X195543213Y-119850247D01*
X195523515Y-119876807D01*
X195501308Y-119901308D01*
X195476807Y-119923515D01*
X195450247Y-119943213D01*
X195421884Y-119960213D01*
X195391991Y-119974351D01*
X195360857Y-119985491D01*
X195328781Y-119993525D01*
X195296071Y-119998377D01*
X195263044Y-120000000D01*
X194136956Y-120000000D01*
X194103929Y-119998377D01*
X194071219Y-119993525D01*
X194039143Y-119985491D01*
X194008009Y-119974351D01*
X193978116Y-119960213D01*
X193949753Y-119943213D01*
X193923193Y-119923515D01*
X193898692Y-119901308D01*
X193876485Y-119876807D01*
X193856787Y-119850247D01*
X193839787Y-119821884D01*
X193825649Y-119791991D01*
X193814509Y-119760857D01*
X193806475Y-119728781D01*
X193801623Y-119696071D01*
X193800000Y-119663044D01*
X193800000Y-118786956D01*
X193801623Y-118753929D01*
X193806475Y-118721219D01*
X193814509Y-118689143D01*
X193825649Y-118658009D01*
X193839787Y-118628116D01*
X193856787Y-118599753D01*
X193876485Y-118573193D01*
X193898692Y-118548692D01*
X193923193Y-118526485D01*
X193949753Y-118506787D01*
X193978116Y-118489787D01*
X194008009Y-118475649D01*
X194039143Y-118464509D01*
X194071219Y-118456475D01*
X194103929Y-118451623D01*
X194136956Y-118450000D01*
X195263044Y-118450000D01*
X195296071Y-118451623D01*
X195296071Y-118451623D01*
G37*
D12*
X194700000Y-119225000D03*
G04 #@! TD*
D10*
G04 #@! TO.C,R3*
G36*
X179446071Y-119751623D02*
X179478781Y-119756475D01*
X179510857Y-119764509D01*
X179541991Y-119775649D01*
X179571884Y-119789787D01*
X179600247Y-119806787D01*
X179626807Y-119826485D01*
X179651308Y-119848692D01*
X179673515Y-119873193D01*
X179693213Y-119899753D01*
X179710213Y-119928116D01*
X179724351Y-119958009D01*
X179735491Y-119989143D01*
X179743525Y-120021219D01*
X179748377Y-120053929D01*
X179750000Y-120086956D01*
X179750000Y-120963044D01*
X179748377Y-120996071D01*
X179743525Y-121028781D01*
X179735491Y-121060857D01*
X179724351Y-121091991D01*
X179710213Y-121121884D01*
X179693213Y-121150247D01*
X179673515Y-121176807D01*
X179651308Y-121201308D01*
X179626807Y-121223515D01*
X179600247Y-121243213D01*
X179571884Y-121260213D01*
X179541991Y-121274351D01*
X179510857Y-121285491D01*
X179478781Y-121293525D01*
X179446071Y-121298377D01*
X179413044Y-121300000D01*
X178286956Y-121300000D01*
X178253929Y-121298377D01*
X178221219Y-121293525D01*
X178189143Y-121285491D01*
X178158009Y-121274351D01*
X178128116Y-121260213D01*
X178099753Y-121243213D01*
X178073193Y-121223515D01*
X178048692Y-121201308D01*
X178026485Y-121176807D01*
X178006787Y-121150247D01*
X177989787Y-121121884D01*
X177975649Y-121091991D01*
X177964509Y-121060857D01*
X177956475Y-121028781D01*
X177951623Y-120996071D01*
X177950000Y-120963044D01*
X177950000Y-120086956D01*
X177951623Y-120053929D01*
X177956475Y-120021219D01*
X177964509Y-119989143D01*
X177975649Y-119958009D01*
X177989787Y-119928116D01*
X178006787Y-119899753D01*
X178026485Y-119873193D01*
X178048692Y-119848692D01*
X178073193Y-119826485D01*
X178099753Y-119806787D01*
X178128116Y-119789787D01*
X178158009Y-119775649D01*
X178189143Y-119764509D01*
X178221219Y-119756475D01*
X178253929Y-119751623D01*
X178286956Y-119750000D01*
X179413044Y-119750000D01*
X179446071Y-119751623D01*
X179446071Y-119751623D01*
G37*
D12*
X178850000Y-120525000D03*
D10*
G36*
X179446071Y-117701623D02*
X179478781Y-117706475D01*
X179510857Y-117714509D01*
X179541991Y-117725649D01*
X179571884Y-117739787D01*
X179600247Y-117756787D01*
X179626807Y-117776485D01*
X179651308Y-117798692D01*
X179673515Y-117823193D01*
X179693213Y-117849753D01*
X179710213Y-117878116D01*
X179724351Y-117908009D01*
X179735491Y-117939143D01*
X179743525Y-117971219D01*
X179748377Y-118003929D01*
X179750000Y-118036956D01*
X179750000Y-118913044D01*
X179748377Y-118946071D01*
X179743525Y-118978781D01*
X179735491Y-119010857D01*
X179724351Y-119041991D01*
X179710213Y-119071884D01*
X179693213Y-119100247D01*
X179673515Y-119126807D01*
X179651308Y-119151308D01*
X179626807Y-119173515D01*
X179600247Y-119193213D01*
X179571884Y-119210213D01*
X179541991Y-119224351D01*
X179510857Y-119235491D01*
X179478781Y-119243525D01*
X179446071Y-119248377D01*
X179413044Y-119250000D01*
X178286956Y-119250000D01*
X178253929Y-119248377D01*
X178221219Y-119243525D01*
X178189143Y-119235491D01*
X178158009Y-119224351D01*
X178128116Y-119210213D01*
X178099753Y-119193213D01*
X178073193Y-119173515D01*
X178048692Y-119151308D01*
X178026485Y-119126807D01*
X178006787Y-119100247D01*
X177989787Y-119071884D01*
X177975649Y-119041991D01*
X177964509Y-119010857D01*
X177956475Y-118978781D01*
X177951623Y-118946071D01*
X177950000Y-118913044D01*
X177950000Y-118036956D01*
X177951623Y-118003929D01*
X177956475Y-117971219D01*
X177964509Y-117939143D01*
X177975649Y-117908009D01*
X177989787Y-117878116D01*
X178006787Y-117849753D01*
X178026485Y-117823193D01*
X178048692Y-117798692D01*
X178073193Y-117776485D01*
X178099753Y-117756787D01*
X178128116Y-117739787D01*
X178158009Y-117725649D01*
X178189143Y-117714509D01*
X178221219Y-117706475D01*
X178253929Y-117701623D01*
X178286956Y-117700000D01*
X179413044Y-117700000D01*
X179446071Y-117701623D01*
X179446071Y-117701623D01*
G37*
D12*
X178850000Y-118475000D03*
G04 #@! TD*
D13*
G04 #@! TO.C,U1*
X183700000Y-117995000D03*
X183700000Y-119265000D03*
X183700000Y-120535000D03*
X183700000Y-121805000D03*
X189100000Y-121805000D03*
X189100000Y-120535000D03*
X189100000Y-119265000D03*
X189100000Y-117995000D03*
G04 #@! TD*
M02*
