G04 #@! TF.GenerationSoftware,KiCad,Pcbnew,(5.0.0)*
G04 #@! TF.CreationDate,2018-10-15T00:14:37+02:00*
G04 #@! TF.ProjectId,GettingToBlinky,47657474696E67546F426C696E6B792E,rev?*
G04 #@! TF.SameCoordinates,Original*
G04 #@! TF.FileFunction,Copper,L1,Top,Signal*
G04 #@! TF.FilePolarity,Positive*
%FSLAX46Y46*%
G04 Gerber Fmt 4.6, Leading zero omitted, Abs format (unit mm)*
G04 Created by KiCad (PCBNEW (5.0.0)) date 10/15/18 00:14:37*
%MOMM*%
%LPD*%
G01*
G04 APERTURE LIST*
G04 #@! TA.AperFunction,Conductor*
%ADD10C,0.100000*%
G04 #@! TD*
G04 #@! TA.AperFunction,SMDPad,CuDef*
%ADD11C,1.425000*%
G04 #@! TD*
G04 #@! TA.AperFunction,SMDPad,CuDef*
%ADD12C,1.150000*%
G04 #@! TD*
G04 #@! TA.AperFunction,SMDPad,CuDef*
%ADD13R,1.550000X0.600000*%
G04 #@! TD*
G04 #@! TA.AperFunction,ViaPad*
%ADD14C,0.800000*%
G04 #@! TD*
G04 #@! TA.AperFunction,Conductor*
%ADD15C,0.250000*%
G04 #@! TD*
G04 #@! TA.AperFunction,Conductor*
%ADD16C,0.254000*%
G04 #@! TD*
G04 APERTURE END LIST*
D10*
G04 #@! TO.N,GND*
G04 #@! TO.C,C1*
G36*
X195349504Y-128826204D02*
X195373773Y-128829804D01*
X195397571Y-128835765D01*
X195420671Y-128844030D01*
X195442849Y-128854520D01*
X195463893Y-128867133D01*
X195483598Y-128881747D01*
X195501777Y-128898223D01*
X195518253Y-128916402D01*
X195532867Y-128936107D01*
X195545480Y-128957151D01*
X195555970Y-128979329D01*
X195564235Y-129002429D01*
X195570196Y-129026227D01*
X195573796Y-129050496D01*
X195575000Y-129075000D01*
X195575000Y-130000000D01*
X195573796Y-130024504D01*
X195570196Y-130048773D01*
X195564235Y-130072571D01*
X195555970Y-130095671D01*
X195545480Y-130117849D01*
X195532867Y-130138893D01*
X195518253Y-130158598D01*
X195501777Y-130176777D01*
X195483598Y-130193253D01*
X195463893Y-130207867D01*
X195442849Y-130220480D01*
X195420671Y-130230970D01*
X195397571Y-130239235D01*
X195373773Y-130245196D01*
X195349504Y-130248796D01*
X195325000Y-130250000D01*
X194075000Y-130250000D01*
X194050496Y-130248796D01*
X194026227Y-130245196D01*
X194002429Y-130239235D01*
X193979329Y-130230970D01*
X193957151Y-130220480D01*
X193936107Y-130207867D01*
X193916402Y-130193253D01*
X193898223Y-130176777D01*
X193881747Y-130158598D01*
X193867133Y-130138893D01*
X193854520Y-130117849D01*
X193844030Y-130095671D01*
X193835765Y-130072571D01*
X193829804Y-130048773D01*
X193826204Y-130024504D01*
X193825000Y-130000000D01*
X193825000Y-129075000D01*
X193826204Y-129050496D01*
X193829804Y-129026227D01*
X193835765Y-129002429D01*
X193844030Y-128979329D01*
X193854520Y-128957151D01*
X193867133Y-128936107D01*
X193881747Y-128916402D01*
X193898223Y-128898223D01*
X193916402Y-128881747D01*
X193936107Y-128867133D01*
X193957151Y-128854520D01*
X193979329Y-128844030D01*
X194002429Y-128835765D01*
X194026227Y-128829804D01*
X194050496Y-128826204D01*
X194075000Y-128825000D01*
X195325000Y-128825000D01*
X195349504Y-128826204D01*
X195349504Y-128826204D01*
G37*
D11*
G04 #@! TD*
G04 #@! TO.P,C1,2*
G04 #@! TO.N,GND*
X194700000Y-129537500D03*
D10*
G04 #@! TO.N,Net-(C1-Pad1)*
G04 #@! TO.C,C1*
G36*
X195349504Y-125851204D02*
X195373773Y-125854804D01*
X195397571Y-125860765D01*
X195420671Y-125869030D01*
X195442849Y-125879520D01*
X195463893Y-125892133D01*
X195483598Y-125906747D01*
X195501777Y-125923223D01*
X195518253Y-125941402D01*
X195532867Y-125961107D01*
X195545480Y-125982151D01*
X195555970Y-126004329D01*
X195564235Y-126027429D01*
X195570196Y-126051227D01*
X195573796Y-126075496D01*
X195575000Y-126100000D01*
X195575000Y-127025000D01*
X195573796Y-127049504D01*
X195570196Y-127073773D01*
X195564235Y-127097571D01*
X195555970Y-127120671D01*
X195545480Y-127142849D01*
X195532867Y-127163893D01*
X195518253Y-127183598D01*
X195501777Y-127201777D01*
X195483598Y-127218253D01*
X195463893Y-127232867D01*
X195442849Y-127245480D01*
X195420671Y-127255970D01*
X195397571Y-127264235D01*
X195373773Y-127270196D01*
X195349504Y-127273796D01*
X195325000Y-127275000D01*
X194075000Y-127275000D01*
X194050496Y-127273796D01*
X194026227Y-127270196D01*
X194002429Y-127264235D01*
X193979329Y-127255970D01*
X193957151Y-127245480D01*
X193936107Y-127232867D01*
X193916402Y-127218253D01*
X193898223Y-127201777D01*
X193881747Y-127183598D01*
X193867133Y-127163893D01*
X193854520Y-127142849D01*
X193844030Y-127120671D01*
X193835765Y-127097571D01*
X193829804Y-127073773D01*
X193826204Y-127049504D01*
X193825000Y-127025000D01*
X193825000Y-126100000D01*
X193826204Y-126075496D01*
X193829804Y-126051227D01*
X193835765Y-126027429D01*
X193844030Y-126004329D01*
X193854520Y-125982151D01*
X193867133Y-125961107D01*
X193881747Y-125941402D01*
X193898223Y-125923223D01*
X193916402Y-125906747D01*
X193936107Y-125892133D01*
X193957151Y-125879520D01*
X193979329Y-125869030D01*
X194002429Y-125860765D01*
X194026227Y-125854804D01*
X194050496Y-125851204D01*
X194075000Y-125850000D01*
X195325000Y-125850000D01*
X195349504Y-125851204D01*
X195349504Y-125851204D01*
G37*
D11*
G04 #@! TD*
G04 #@! TO.P,C1,1*
G04 #@! TO.N,Net-(C1-Pad1)*
X194700000Y-126562500D03*
D10*
G04 #@! TO.N,Net-(D1-Pad2)*
G04 #@! TO.C,D1*
G36*
X179324505Y-113651204D02*
X179348773Y-113654804D01*
X179372572Y-113660765D01*
X179395671Y-113669030D01*
X179417850Y-113679520D01*
X179438893Y-113692132D01*
X179458599Y-113706747D01*
X179476777Y-113723223D01*
X179493253Y-113741401D01*
X179507868Y-113761107D01*
X179520480Y-113782150D01*
X179530970Y-113804329D01*
X179539235Y-113827428D01*
X179545196Y-113851227D01*
X179548796Y-113875495D01*
X179550000Y-113899999D01*
X179550000Y-114550001D01*
X179548796Y-114574505D01*
X179545196Y-114598773D01*
X179539235Y-114622572D01*
X179530970Y-114645671D01*
X179520480Y-114667850D01*
X179507868Y-114688893D01*
X179493253Y-114708599D01*
X179476777Y-114726777D01*
X179458599Y-114743253D01*
X179438893Y-114757868D01*
X179417850Y-114770480D01*
X179395671Y-114780970D01*
X179372572Y-114789235D01*
X179348773Y-114795196D01*
X179324505Y-114798796D01*
X179300001Y-114800000D01*
X178399999Y-114800000D01*
X178375495Y-114798796D01*
X178351227Y-114795196D01*
X178327428Y-114789235D01*
X178304329Y-114780970D01*
X178282150Y-114770480D01*
X178261107Y-114757868D01*
X178241401Y-114743253D01*
X178223223Y-114726777D01*
X178206747Y-114708599D01*
X178192132Y-114688893D01*
X178179520Y-114667850D01*
X178169030Y-114645671D01*
X178160765Y-114622572D01*
X178154804Y-114598773D01*
X178151204Y-114574505D01*
X178150000Y-114550001D01*
X178150000Y-113899999D01*
X178151204Y-113875495D01*
X178154804Y-113851227D01*
X178160765Y-113827428D01*
X178169030Y-113804329D01*
X178179520Y-113782150D01*
X178192132Y-113761107D01*
X178206747Y-113741401D01*
X178223223Y-113723223D01*
X178241401Y-113706747D01*
X178261107Y-113692132D01*
X178282150Y-113679520D01*
X178304329Y-113669030D01*
X178327428Y-113660765D01*
X178351227Y-113654804D01*
X178375495Y-113651204D01*
X178399999Y-113650000D01*
X179300001Y-113650000D01*
X179324505Y-113651204D01*
X179324505Y-113651204D01*
G37*
D12*
G04 #@! TD*
G04 #@! TO.P,D1,2*
G04 #@! TO.N,Net-(D1-Pad2)*
X178850000Y-114225000D03*
D10*
G04 #@! TO.N,GND*
G04 #@! TO.C,D1*
G36*
X179324505Y-111601204D02*
X179348773Y-111604804D01*
X179372572Y-111610765D01*
X179395671Y-111619030D01*
X179417850Y-111629520D01*
X179438893Y-111642132D01*
X179458599Y-111656747D01*
X179476777Y-111673223D01*
X179493253Y-111691401D01*
X179507868Y-111711107D01*
X179520480Y-111732150D01*
X179530970Y-111754329D01*
X179539235Y-111777428D01*
X179545196Y-111801227D01*
X179548796Y-111825495D01*
X179550000Y-111849999D01*
X179550000Y-112500001D01*
X179548796Y-112524505D01*
X179545196Y-112548773D01*
X179539235Y-112572572D01*
X179530970Y-112595671D01*
X179520480Y-112617850D01*
X179507868Y-112638893D01*
X179493253Y-112658599D01*
X179476777Y-112676777D01*
X179458599Y-112693253D01*
X179438893Y-112707868D01*
X179417850Y-112720480D01*
X179395671Y-112730970D01*
X179372572Y-112739235D01*
X179348773Y-112745196D01*
X179324505Y-112748796D01*
X179300001Y-112750000D01*
X178399999Y-112750000D01*
X178375495Y-112748796D01*
X178351227Y-112745196D01*
X178327428Y-112739235D01*
X178304329Y-112730970D01*
X178282150Y-112720480D01*
X178261107Y-112707868D01*
X178241401Y-112693253D01*
X178223223Y-112676777D01*
X178206747Y-112658599D01*
X178192132Y-112638893D01*
X178179520Y-112617850D01*
X178169030Y-112595671D01*
X178160765Y-112572572D01*
X178154804Y-112548773D01*
X178151204Y-112524505D01*
X178150000Y-112500001D01*
X178150000Y-111849999D01*
X178151204Y-111825495D01*
X178154804Y-111801227D01*
X178160765Y-111777428D01*
X178169030Y-111754329D01*
X178179520Y-111732150D01*
X178192132Y-111711107D01*
X178206747Y-111691401D01*
X178223223Y-111673223D01*
X178241401Y-111656747D01*
X178261107Y-111642132D01*
X178282150Y-111629520D01*
X178304329Y-111619030D01*
X178327428Y-111610765D01*
X178351227Y-111604804D01*
X178375495Y-111601204D01*
X178399999Y-111600000D01*
X179300001Y-111600000D01*
X179324505Y-111601204D01*
X179324505Y-111601204D01*
G37*
D12*
G04 #@! TD*
G04 #@! TO.P,D1,1*
G04 #@! TO.N,GND*
X178850000Y-112175000D03*
D10*
G04 #@! TO.N,Net-(R1-Pad2)*
G04 #@! TO.C,R1*
G36*
X195174505Y-113701204D02*
X195198773Y-113704804D01*
X195222572Y-113710765D01*
X195245671Y-113719030D01*
X195267850Y-113729520D01*
X195288893Y-113742132D01*
X195308599Y-113756747D01*
X195326777Y-113773223D01*
X195343253Y-113791401D01*
X195357868Y-113811107D01*
X195370480Y-113832150D01*
X195380970Y-113854329D01*
X195389235Y-113877428D01*
X195395196Y-113901227D01*
X195398796Y-113925495D01*
X195400000Y-113949999D01*
X195400000Y-114600001D01*
X195398796Y-114624505D01*
X195395196Y-114648773D01*
X195389235Y-114672572D01*
X195380970Y-114695671D01*
X195370480Y-114717850D01*
X195357868Y-114738893D01*
X195343253Y-114758599D01*
X195326777Y-114776777D01*
X195308599Y-114793253D01*
X195288893Y-114807868D01*
X195267850Y-114820480D01*
X195245671Y-114830970D01*
X195222572Y-114839235D01*
X195198773Y-114845196D01*
X195174505Y-114848796D01*
X195150001Y-114850000D01*
X194249999Y-114850000D01*
X194225495Y-114848796D01*
X194201227Y-114845196D01*
X194177428Y-114839235D01*
X194154329Y-114830970D01*
X194132150Y-114820480D01*
X194111107Y-114807868D01*
X194091401Y-114793253D01*
X194073223Y-114776777D01*
X194056747Y-114758599D01*
X194042132Y-114738893D01*
X194029520Y-114717850D01*
X194019030Y-114695671D01*
X194010765Y-114672572D01*
X194004804Y-114648773D01*
X194001204Y-114624505D01*
X194000000Y-114600001D01*
X194000000Y-113949999D01*
X194001204Y-113925495D01*
X194004804Y-113901227D01*
X194010765Y-113877428D01*
X194019030Y-113854329D01*
X194029520Y-113832150D01*
X194042132Y-113811107D01*
X194056747Y-113791401D01*
X194073223Y-113773223D01*
X194091401Y-113756747D01*
X194111107Y-113742132D01*
X194132150Y-113729520D01*
X194154329Y-113719030D01*
X194177428Y-113710765D01*
X194201227Y-113704804D01*
X194225495Y-113701204D01*
X194249999Y-113700000D01*
X195150001Y-113700000D01*
X195174505Y-113701204D01*
X195174505Y-113701204D01*
G37*
D12*
G04 #@! TD*
G04 #@! TO.P,R1,2*
G04 #@! TO.N,Net-(R1-Pad2)*
X194700000Y-114275000D03*
D10*
G04 #@! TO.N,/VDD*
G04 #@! TO.C,R1*
G36*
X195174505Y-111651204D02*
X195198773Y-111654804D01*
X195222572Y-111660765D01*
X195245671Y-111669030D01*
X195267850Y-111679520D01*
X195288893Y-111692132D01*
X195308599Y-111706747D01*
X195326777Y-111723223D01*
X195343253Y-111741401D01*
X195357868Y-111761107D01*
X195370480Y-111782150D01*
X195380970Y-111804329D01*
X195389235Y-111827428D01*
X195395196Y-111851227D01*
X195398796Y-111875495D01*
X195400000Y-111899999D01*
X195400000Y-112550001D01*
X195398796Y-112574505D01*
X195395196Y-112598773D01*
X195389235Y-112622572D01*
X195380970Y-112645671D01*
X195370480Y-112667850D01*
X195357868Y-112688893D01*
X195343253Y-112708599D01*
X195326777Y-112726777D01*
X195308599Y-112743253D01*
X195288893Y-112757868D01*
X195267850Y-112770480D01*
X195245671Y-112780970D01*
X195222572Y-112789235D01*
X195198773Y-112795196D01*
X195174505Y-112798796D01*
X195150001Y-112800000D01*
X194249999Y-112800000D01*
X194225495Y-112798796D01*
X194201227Y-112795196D01*
X194177428Y-112789235D01*
X194154329Y-112780970D01*
X194132150Y-112770480D01*
X194111107Y-112757868D01*
X194091401Y-112743253D01*
X194073223Y-112726777D01*
X194056747Y-112708599D01*
X194042132Y-112688893D01*
X194029520Y-112667850D01*
X194019030Y-112645671D01*
X194010765Y-112622572D01*
X194004804Y-112598773D01*
X194001204Y-112574505D01*
X194000000Y-112550001D01*
X194000000Y-111899999D01*
X194001204Y-111875495D01*
X194004804Y-111851227D01*
X194010765Y-111827428D01*
X194019030Y-111804329D01*
X194029520Y-111782150D01*
X194042132Y-111761107D01*
X194056747Y-111741401D01*
X194073223Y-111723223D01*
X194091401Y-111706747D01*
X194111107Y-111692132D01*
X194132150Y-111679520D01*
X194154329Y-111669030D01*
X194177428Y-111660765D01*
X194201227Y-111654804D01*
X194225495Y-111651204D01*
X194249999Y-111650000D01*
X195150001Y-111650000D01*
X195174505Y-111651204D01*
X195174505Y-111651204D01*
G37*
D12*
G04 #@! TD*
G04 #@! TO.P,R1,1*
G04 #@! TO.N,/VDD*
X194700000Y-112225000D03*
D10*
G04 #@! TO.N,Net-(C1-Pad1)*
G04 #@! TO.C,R2*
G36*
X195174505Y-120701204D02*
X195198773Y-120704804D01*
X195222572Y-120710765D01*
X195245671Y-120719030D01*
X195267850Y-120729520D01*
X195288893Y-120742132D01*
X195308599Y-120756747D01*
X195326777Y-120773223D01*
X195343253Y-120791401D01*
X195357868Y-120811107D01*
X195370480Y-120832150D01*
X195380970Y-120854329D01*
X195389235Y-120877428D01*
X195395196Y-120901227D01*
X195398796Y-120925495D01*
X195400000Y-120949999D01*
X195400000Y-121600001D01*
X195398796Y-121624505D01*
X195395196Y-121648773D01*
X195389235Y-121672572D01*
X195380970Y-121695671D01*
X195370480Y-121717850D01*
X195357868Y-121738893D01*
X195343253Y-121758599D01*
X195326777Y-121776777D01*
X195308599Y-121793253D01*
X195288893Y-121807868D01*
X195267850Y-121820480D01*
X195245671Y-121830970D01*
X195222572Y-121839235D01*
X195198773Y-121845196D01*
X195174505Y-121848796D01*
X195150001Y-121850000D01*
X194249999Y-121850000D01*
X194225495Y-121848796D01*
X194201227Y-121845196D01*
X194177428Y-121839235D01*
X194154329Y-121830970D01*
X194132150Y-121820480D01*
X194111107Y-121807868D01*
X194091401Y-121793253D01*
X194073223Y-121776777D01*
X194056747Y-121758599D01*
X194042132Y-121738893D01*
X194029520Y-121717850D01*
X194019030Y-121695671D01*
X194010765Y-121672572D01*
X194004804Y-121648773D01*
X194001204Y-121624505D01*
X194000000Y-121600001D01*
X194000000Y-120949999D01*
X194001204Y-120925495D01*
X194004804Y-120901227D01*
X194010765Y-120877428D01*
X194019030Y-120854329D01*
X194029520Y-120832150D01*
X194042132Y-120811107D01*
X194056747Y-120791401D01*
X194073223Y-120773223D01*
X194091401Y-120756747D01*
X194111107Y-120742132D01*
X194132150Y-120729520D01*
X194154329Y-120719030D01*
X194177428Y-120710765D01*
X194201227Y-120704804D01*
X194225495Y-120701204D01*
X194249999Y-120700000D01*
X195150001Y-120700000D01*
X195174505Y-120701204D01*
X195174505Y-120701204D01*
G37*
D12*
G04 #@! TD*
G04 #@! TO.P,R2,2*
G04 #@! TO.N,Net-(C1-Pad1)*
X194700000Y-121275000D03*
D10*
G04 #@! TO.N,Net-(R1-Pad2)*
G04 #@! TO.C,R2*
G36*
X195174505Y-118651204D02*
X195198773Y-118654804D01*
X195222572Y-118660765D01*
X195245671Y-118669030D01*
X195267850Y-118679520D01*
X195288893Y-118692132D01*
X195308599Y-118706747D01*
X195326777Y-118723223D01*
X195343253Y-118741401D01*
X195357868Y-118761107D01*
X195370480Y-118782150D01*
X195380970Y-118804329D01*
X195389235Y-118827428D01*
X195395196Y-118851227D01*
X195398796Y-118875495D01*
X195400000Y-118899999D01*
X195400000Y-119550001D01*
X195398796Y-119574505D01*
X195395196Y-119598773D01*
X195389235Y-119622572D01*
X195380970Y-119645671D01*
X195370480Y-119667850D01*
X195357868Y-119688893D01*
X195343253Y-119708599D01*
X195326777Y-119726777D01*
X195308599Y-119743253D01*
X195288893Y-119757868D01*
X195267850Y-119770480D01*
X195245671Y-119780970D01*
X195222572Y-119789235D01*
X195198773Y-119795196D01*
X195174505Y-119798796D01*
X195150001Y-119800000D01*
X194249999Y-119800000D01*
X194225495Y-119798796D01*
X194201227Y-119795196D01*
X194177428Y-119789235D01*
X194154329Y-119780970D01*
X194132150Y-119770480D01*
X194111107Y-119757868D01*
X194091401Y-119743253D01*
X194073223Y-119726777D01*
X194056747Y-119708599D01*
X194042132Y-119688893D01*
X194029520Y-119667850D01*
X194019030Y-119645671D01*
X194010765Y-119622572D01*
X194004804Y-119598773D01*
X194001204Y-119574505D01*
X194000000Y-119550001D01*
X194000000Y-118899999D01*
X194001204Y-118875495D01*
X194004804Y-118851227D01*
X194010765Y-118827428D01*
X194019030Y-118804329D01*
X194029520Y-118782150D01*
X194042132Y-118761107D01*
X194056747Y-118741401D01*
X194073223Y-118723223D01*
X194091401Y-118706747D01*
X194111107Y-118692132D01*
X194132150Y-118679520D01*
X194154329Y-118669030D01*
X194177428Y-118660765D01*
X194201227Y-118654804D01*
X194225495Y-118651204D01*
X194249999Y-118650000D01*
X195150001Y-118650000D01*
X195174505Y-118651204D01*
X195174505Y-118651204D01*
G37*
D12*
G04 #@! TD*
G04 #@! TO.P,R2,1*
G04 #@! TO.N,Net-(R1-Pad2)*
X194700000Y-119225000D03*
D10*
G04 #@! TO.N,Net-(R3-Pad1)*
G04 #@! TO.C,R3*
G36*
X179324505Y-119951204D02*
X179348773Y-119954804D01*
X179372572Y-119960765D01*
X179395671Y-119969030D01*
X179417850Y-119979520D01*
X179438893Y-119992132D01*
X179458599Y-120006747D01*
X179476777Y-120023223D01*
X179493253Y-120041401D01*
X179507868Y-120061107D01*
X179520480Y-120082150D01*
X179530970Y-120104329D01*
X179539235Y-120127428D01*
X179545196Y-120151227D01*
X179548796Y-120175495D01*
X179550000Y-120199999D01*
X179550000Y-120850001D01*
X179548796Y-120874505D01*
X179545196Y-120898773D01*
X179539235Y-120922572D01*
X179530970Y-120945671D01*
X179520480Y-120967850D01*
X179507868Y-120988893D01*
X179493253Y-121008599D01*
X179476777Y-121026777D01*
X179458599Y-121043253D01*
X179438893Y-121057868D01*
X179417850Y-121070480D01*
X179395671Y-121080970D01*
X179372572Y-121089235D01*
X179348773Y-121095196D01*
X179324505Y-121098796D01*
X179300001Y-121100000D01*
X178399999Y-121100000D01*
X178375495Y-121098796D01*
X178351227Y-121095196D01*
X178327428Y-121089235D01*
X178304329Y-121080970D01*
X178282150Y-121070480D01*
X178261107Y-121057868D01*
X178241401Y-121043253D01*
X178223223Y-121026777D01*
X178206747Y-121008599D01*
X178192132Y-120988893D01*
X178179520Y-120967850D01*
X178169030Y-120945671D01*
X178160765Y-120922572D01*
X178154804Y-120898773D01*
X178151204Y-120874505D01*
X178150000Y-120850001D01*
X178150000Y-120199999D01*
X178151204Y-120175495D01*
X178154804Y-120151227D01*
X178160765Y-120127428D01*
X178169030Y-120104329D01*
X178179520Y-120082150D01*
X178192132Y-120061107D01*
X178206747Y-120041401D01*
X178223223Y-120023223D01*
X178241401Y-120006747D01*
X178261107Y-119992132D01*
X178282150Y-119979520D01*
X178304329Y-119969030D01*
X178327428Y-119960765D01*
X178351227Y-119954804D01*
X178375495Y-119951204D01*
X178399999Y-119950000D01*
X179300001Y-119950000D01*
X179324505Y-119951204D01*
X179324505Y-119951204D01*
G37*
D12*
G04 #@! TD*
G04 #@! TO.P,R3,1*
G04 #@! TO.N,Net-(R3-Pad1)*
X178850000Y-120525000D03*
D10*
G04 #@! TO.N,Net-(D1-Pad2)*
G04 #@! TO.C,R3*
G36*
X179324505Y-117901204D02*
X179348773Y-117904804D01*
X179372572Y-117910765D01*
X179395671Y-117919030D01*
X179417850Y-117929520D01*
X179438893Y-117942132D01*
X179458599Y-117956747D01*
X179476777Y-117973223D01*
X179493253Y-117991401D01*
X179507868Y-118011107D01*
X179520480Y-118032150D01*
X179530970Y-118054329D01*
X179539235Y-118077428D01*
X179545196Y-118101227D01*
X179548796Y-118125495D01*
X179550000Y-118149999D01*
X179550000Y-118800001D01*
X179548796Y-118824505D01*
X179545196Y-118848773D01*
X179539235Y-118872572D01*
X179530970Y-118895671D01*
X179520480Y-118917850D01*
X179507868Y-118938893D01*
X179493253Y-118958599D01*
X179476777Y-118976777D01*
X179458599Y-118993253D01*
X179438893Y-119007868D01*
X179417850Y-119020480D01*
X179395671Y-119030970D01*
X179372572Y-119039235D01*
X179348773Y-119045196D01*
X179324505Y-119048796D01*
X179300001Y-119050000D01*
X178399999Y-119050000D01*
X178375495Y-119048796D01*
X178351227Y-119045196D01*
X178327428Y-119039235D01*
X178304329Y-119030970D01*
X178282150Y-119020480D01*
X178261107Y-119007868D01*
X178241401Y-118993253D01*
X178223223Y-118976777D01*
X178206747Y-118958599D01*
X178192132Y-118938893D01*
X178179520Y-118917850D01*
X178169030Y-118895671D01*
X178160765Y-118872572D01*
X178154804Y-118848773D01*
X178151204Y-118824505D01*
X178150000Y-118800001D01*
X178150000Y-118149999D01*
X178151204Y-118125495D01*
X178154804Y-118101227D01*
X178160765Y-118077428D01*
X178169030Y-118054329D01*
X178179520Y-118032150D01*
X178192132Y-118011107D01*
X178206747Y-117991401D01*
X178223223Y-117973223D01*
X178241401Y-117956747D01*
X178261107Y-117942132D01*
X178282150Y-117929520D01*
X178304329Y-117919030D01*
X178327428Y-117910765D01*
X178351227Y-117904804D01*
X178375495Y-117901204D01*
X178399999Y-117900000D01*
X179300001Y-117900000D01*
X179324505Y-117901204D01*
X179324505Y-117901204D01*
G37*
D12*
G04 #@! TD*
G04 #@! TO.P,R3,2*
G04 #@! TO.N,Net-(D1-Pad2)*
X178850000Y-118475000D03*
D13*
G04 #@! TO.P,U1,1*
G04 #@! TO.N,GND*
X183700000Y-117995000D03*
G04 #@! TO.P,U1,2*
G04 #@! TO.N,Net-(C1-Pad1)*
X183700000Y-119265000D03*
G04 #@! TO.P,U1,3*
G04 #@! TO.N,Net-(R3-Pad1)*
X183700000Y-120535000D03*
G04 #@! TO.P,U1,4*
G04 #@! TO.N,/VDD*
X183700000Y-121805000D03*
G04 #@! TO.P,U1,5*
G04 #@! TO.N,Net-(U1-Pad5)*
X189100000Y-121805000D03*
G04 #@! TO.P,U1,6*
G04 #@! TO.N,Net-(C1-Pad1)*
X189100000Y-120535000D03*
G04 #@! TO.P,U1,7*
G04 #@! TO.N,Net-(R1-Pad2)*
X189100000Y-119265000D03*
G04 #@! TO.P,U1,8*
G04 #@! TO.N,/VDD*
X189100000Y-117995000D03*
G04 #@! TD*
D14*
G04 #@! TO.N,/VDD*
X189150000Y-115350000D03*
X191500000Y-112250000D03*
X181150000Y-122650000D03*
G04 #@! TO.N,GND*
X185900000Y-129200000D03*
G04 #@! TD*
D15*
G04 #@! TO.N,/VDD*
X189100000Y-117995000D02*
X189100000Y-115400000D01*
X189100000Y-115400000D02*
X189150000Y-115350000D01*
X194700000Y-112225000D02*
X191525000Y-112225000D01*
X191525000Y-112225000D02*
X191500000Y-112250000D01*
X183700000Y-121805000D02*
X181995000Y-121805000D01*
X181995000Y-121805000D02*
X181150000Y-122650000D01*
G04 #@! TO.N,Net-(C1-Pad1)*
X194700000Y-121275000D02*
X194700000Y-126562500D01*
X183700000Y-119265000D02*
X185715000Y-119265000D01*
X186985000Y-120535000D02*
X189100000Y-120535000D01*
X185715000Y-119265000D02*
X186985000Y-120535000D01*
X189100000Y-120535000D02*
X192300000Y-120535000D01*
X193040000Y-121275000D02*
X194700000Y-121275000D01*
X192300000Y-120535000D02*
X193040000Y-121275000D01*
G04 #@! TO.N,Net-(D1-Pad2)*
X178850000Y-114225000D02*
X178850000Y-118475000D01*
G04 #@! TO.N,Net-(R1-Pad2)*
X189100000Y-119265000D02*
X194660000Y-119265000D01*
X194660000Y-119265000D02*
X194700000Y-119225000D01*
X194700000Y-114275000D02*
X194700000Y-119225000D01*
G04 #@! TO.N,Net-(R3-Pad1)*
X183700000Y-120535000D02*
X178860000Y-120535000D01*
X178860000Y-120535000D02*
X178850000Y-120525000D01*
G04 #@! TD*
D16*
G04 #@! TO.N,GND*
G36*
X197290001Y-138790000D02*
X174510000Y-138790000D01*
X174510000Y-129823250D01*
X193190000Y-129823250D01*
X193190000Y-130376309D01*
X193286673Y-130609698D01*
X193465301Y-130788327D01*
X193698690Y-130885000D01*
X194414250Y-130885000D01*
X194573000Y-130726250D01*
X194573000Y-129664500D01*
X194827000Y-129664500D01*
X194827000Y-130726250D01*
X194985750Y-130885000D01*
X195701310Y-130885000D01*
X195934699Y-130788327D01*
X196113327Y-130609698D01*
X196210000Y-130376309D01*
X196210000Y-129823250D01*
X196051250Y-129664500D01*
X194827000Y-129664500D01*
X194573000Y-129664500D01*
X193348750Y-129664500D01*
X193190000Y-129823250D01*
X174510000Y-129823250D01*
X174510000Y-128698691D01*
X193190000Y-128698691D01*
X193190000Y-129251750D01*
X193348750Y-129410500D01*
X194573000Y-129410500D01*
X194573000Y-128348750D01*
X194827000Y-128348750D01*
X194827000Y-129410500D01*
X196051250Y-129410500D01*
X196210000Y-129251750D01*
X196210000Y-128698691D01*
X196113327Y-128465302D01*
X195934699Y-128286673D01*
X195701310Y-128190000D01*
X194985750Y-128190000D01*
X194827000Y-128348750D01*
X194573000Y-128348750D01*
X194414250Y-128190000D01*
X193698690Y-128190000D01*
X193465301Y-128286673D01*
X193286673Y-128465302D01*
X193190000Y-128698691D01*
X174510000Y-128698691D01*
X174510000Y-113899999D01*
X177502560Y-113899999D01*
X177502560Y-114550001D01*
X177570873Y-114893436D01*
X177765414Y-115184586D01*
X178056564Y-115379127D01*
X178090000Y-115385778D01*
X178090001Y-117314222D01*
X178056564Y-117320873D01*
X177765414Y-117515414D01*
X177570873Y-117806564D01*
X177502560Y-118149999D01*
X177502560Y-118800001D01*
X177570873Y-119143436D01*
X177765414Y-119434586D01*
X177863313Y-119500000D01*
X177765414Y-119565414D01*
X177570873Y-119856564D01*
X177502560Y-120199999D01*
X177502560Y-120850001D01*
X177570873Y-121193436D01*
X177765414Y-121484586D01*
X178056564Y-121679127D01*
X178399999Y-121747440D01*
X179300001Y-121747440D01*
X179643436Y-121679127D01*
X179934586Y-121484586D01*
X180061264Y-121295000D01*
X181421728Y-121295000D01*
X181404673Y-121320525D01*
X181110198Y-121615000D01*
X180944126Y-121615000D01*
X180563720Y-121772569D01*
X180272569Y-122063720D01*
X180115000Y-122444126D01*
X180115000Y-122855874D01*
X180272569Y-123236280D01*
X180563720Y-123527431D01*
X180944126Y-123685000D01*
X181355874Y-123685000D01*
X181736280Y-123527431D01*
X182027431Y-123236280D01*
X182185000Y-122855874D01*
X182185000Y-122689802D01*
X182309802Y-122565000D01*
X182470470Y-122565000D01*
X182677235Y-122703157D01*
X182925000Y-122752440D01*
X184475000Y-122752440D01*
X184722765Y-122703157D01*
X184932809Y-122562809D01*
X185073157Y-122352765D01*
X185122440Y-122105000D01*
X185122440Y-121505000D01*
X185073157Y-121257235D01*
X185014868Y-121170000D01*
X185073157Y-121082765D01*
X185122440Y-120835000D01*
X185122440Y-120235000D01*
X185080669Y-120025000D01*
X185400199Y-120025000D01*
X186394670Y-121019472D01*
X186437071Y-121082929D01*
X186688463Y-121250904D01*
X186910148Y-121295000D01*
X186910152Y-121295000D01*
X186984999Y-121309888D01*
X187059846Y-121295000D01*
X187719331Y-121295000D01*
X187677560Y-121505000D01*
X187677560Y-122105000D01*
X187726843Y-122352765D01*
X187867191Y-122562809D01*
X188077235Y-122703157D01*
X188325000Y-122752440D01*
X189875000Y-122752440D01*
X190122765Y-122703157D01*
X190332809Y-122562809D01*
X190473157Y-122352765D01*
X190522440Y-122105000D01*
X190522440Y-121505000D01*
X190480669Y-121295000D01*
X191985199Y-121295000D01*
X192449671Y-121759473D01*
X192492071Y-121822929D01*
X192743463Y-121990904D01*
X192965148Y-122035000D01*
X192965152Y-122035000D01*
X193039999Y-122049888D01*
X193114846Y-122035000D01*
X193482054Y-122035000D01*
X193615414Y-122234586D01*
X193906564Y-122429127D01*
X193940000Y-122435778D01*
X193940001Y-125229413D01*
X193731565Y-125270874D01*
X193440414Y-125465414D01*
X193245874Y-125756565D01*
X193177560Y-126100000D01*
X193177560Y-127025000D01*
X193245874Y-127368435D01*
X193440414Y-127659586D01*
X193731565Y-127854126D01*
X194075000Y-127922440D01*
X195325000Y-127922440D01*
X195668435Y-127854126D01*
X195959586Y-127659586D01*
X196154126Y-127368435D01*
X196222440Y-127025000D01*
X196222440Y-126100000D01*
X196154126Y-125756565D01*
X195959586Y-125465414D01*
X195668435Y-125270874D01*
X195460000Y-125229413D01*
X195460000Y-122435778D01*
X195493436Y-122429127D01*
X195784586Y-122234586D01*
X195979127Y-121943436D01*
X196047440Y-121600001D01*
X196047440Y-120949999D01*
X195979127Y-120606564D01*
X195784586Y-120315414D01*
X195686687Y-120250000D01*
X195784586Y-120184586D01*
X195979127Y-119893436D01*
X196047440Y-119550001D01*
X196047440Y-118899999D01*
X195979127Y-118556564D01*
X195784586Y-118265414D01*
X195493436Y-118070873D01*
X195460000Y-118064222D01*
X195460000Y-115435778D01*
X195493436Y-115429127D01*
X195784586Y-115234586D01*
X195979127Y-114943436D01*
X196047440Y-114600001D01*
X196047440Y-113949999D01*
X195979127Y-113606564D01*
X195784586Y-113315414D01*
X195686687Y-113250000D01*
X195784586Y-113184586D01*
X195979127Y-112893436D01*
X196047440Y-112550001D01*
X196047440Y-111899999D01*
X195979127Y-111556564D01*
X195784586Y-111265414D01*
X195493436Y-111070873D01*
X195150001Y-111002560D01*
X194249999Y-111002560D01*
X193906564Y-111070873D01*
X193615414Y-111265414D01*
X193482054Y-111465000D01*
X192178711Y-111465000D01*
X192086280Y-111372569D01*
X191705874Y-111215000D01*
X191294126Y-111215000D01*
X190913720Y-111372569D01*
X190622569Y-111663720D01*
X190465000Y-112044126D01*
X190465000Y-112455874D01*
X190622569Y-112836280D01*
X190913720Y-113127431D01*
X191294126Y-113285000D01*
X191705874Y-113285000D01*
X192086280Y-113127431D01*
X192228711Y-112985000D01*
X193482054Y-112985000D01*
X193615414Y-113184586D01*
X193713313Y-113250000D01*
X193615414Y-113315414D01*
X193420873Y-113606564D01*
X193352560Y-113949999D01*
X193352560Y-114600001D01*
X193420873Y-114943436D01*
X193615414Y-115234586D01*
X193906564Y-115429127D01*
X193940000Y-115435778D01*
X193940001Y-118064222D01*
X193906564Y-118070873D01*
X193615414Y-118265414D01*
X193455327Y-118505000D01*
X190480669Y-118505000D01*
X190522440Y-118295000D01*
X190522440Y-117695000D01*
X190473157Y-117447235D01*
X190332809Y-117237191D01*
X190122765Y-117096843D01*
X189875000Y-117047560D01*
X189860000Y-117047560D01*
X189860000Y-116103711D01*
X190027431Y-115936280D01*
X190185000Y-115555874D01*
X190185000Y-115144126D01*
X190027431Y-114763720D01*
X189736280Y-114472569D01*
X189355874Y-114315000D01*
X188944126Y-114315000D01*
X188563720Y-114472569D01*
X188272569Y-114763720D01*
X188115000Y-115144126D01*
X188115000Y-115555874D01*
X188272569Y-115936280D01*
X188340001Y-116003712D01*
X188340000Y-117047560D01*
X188325000Y-117047560D01*
X188077235Y-117096843D01*
X187867191Y-117237191D01*
X187726843Y-117447235D01*
X187677560Y-117695000D01*
X187677560Y-118295000D01*
X187726843Y-118542765D01*
X187785132Y-118630000D01*
X187726843Y-118717235D01*
X187677560Y-118965000D01*
X187677560Y-119565000D01*
X187719331Y-119775000D01*
X187299802Y-119775000D01*
X186305331Y-118780530D01*
X186262929Y-118717071D01*
X186011537Y-118549096D01*
X185789852Y-118505000D01*
X185789847Y-118505000D01*
X185715000Y-118490112D01*
X185640153Y-118505000D01*
X185075334Y-118505000D01*
X185110000Y-118421310D01*
X185110000Y-118280750D01*
X184951250Y-118122000D01*
X183827000Y-118122000D01*
X183827000Y-118142000D01*
X183573000Y-118142000D01*
X183573000Y-118122000D01*
X182448750Y-118122000D01*
X182290000Y-118280750D01*
X182290000Y-118421310D01*
X182379768Y-118638028D01*
X182326843Y-118717235D01*
X182277560Y-118965000D01*
X182277560Y-119565000D01*
X182319331Y-119775000D01*
X180074627Y-119775000D01*
X179934586Y-119565414D01*
X179836687Y-119500000D01*
X179934586Y-119434586D01*
X180129127Y-119143436D01*
X180197440Y-118800001D01*
X180197440Y-118149999D01*
X180129127Y-117806564D01*
X179970185Y-117568690D01*
X182290000Y-117568690D01*
X182290000Y-117709250D01*
X182448750Y-117868000D01*
X183573000Y-117868000D01*
X183573000Y-117218750D01*
X183827000Y-117218750D01*
X183827000Y-117868000D01*
X184951250Y-117868000D01*
X185110000Y-117709250D01*
X185110000Y-117568690D01*
X185013327Y-117335301D01*
X184834698Y-117156673D01*
X184601309Y-117060000D01*
X183985750Y-117060000D01*
X183827000Y-117218750D01*
X183573000Y-117218750D01*
X183414250Y-117060000D01*
X182798691Y-117060000D01*
X182565302Y-117156673D01*
X182386673Y-117335301D01*
X182290000Y-117568690D01*
X179970185Y-117568690D01*
X179934586Y-117515414D01*
X179643436Y-117320873D01*
X179610000Y-117314222D01*
X179610000Y-115385778D01*
X179643436Y-115379127D01*
X179934586Y-115184586D01*
X180129127Y-114893436D01*
X180197440Y-114550001D01*
X180197440Y-113899999D01*
X180129127Y-113556564D01*
X179934586Y-113265414D01*
X179933403Y-113264623D01*
X180088327Y-113109698D01*
X180185000Y-112876309D01*
X180185000Y-112460750D01*
X180026250Y-112302000D01*
X178977000Y-112302000D01*
X178977000Y-112322000D01*
X178723000Y-112322000D01*
X178723000Y-112302000D01*
X177673750Y-112302000D01*
X177515000Y-112460750D01*
X177515000Y-112876309D01*
X177611673Y-113109698D01*
X177766597Y-113264623D01*
X177765414Y-113265414D01*
X177570873Y-113556564D01*
X177502560Y-113899999D01*
X174510000Y-113899999D01*
X174510000Y-111473691D01*
X177515000Y-111473691D01*
X177515000Y-111889250D01*
X177673750Y-112048000D01*
X178723000Y-112048000D01*
X178723000Y-111123750D01*
X178977000Y-111123750D01*
X178977000Y-112048000D01*
X180026250Y-112048000D01*
X180185000Y-111889250D01*
X180185000Y-111473691D01*
X180088327Y-111240302D01*
X179909699Y-111061673D01*
X179676310Y-110965000D01*
X179135750Y-110965000D01*
X178977000Y-111123750D01*
X178723000Y-111123750D01*
X178564250Y-110965000D01*
X178023690Y-110965000D01*
X177790301Y-111061673D01*
X177611673Y-111240302D01*
X177515000Y-111473691D01*
X174510000Y-111473691D01*
X174510000Y-98010000D01*
X197290000Y-98010000D01*
X197290001Y-138790000D01*
X197290001Y-138790000D01*
G37*
X197290001Y-138790000D02*
X174510000Y-138790000D01*
X174510000Y-129823250D01*
X193190000Y-129823250D01*
X193190000Y-130376309D01*
X193286673Y-130609698D01*
X193465301Y-130788327D01*
X193698690Y-130885000D01*
X194414250Y-130885000D01*
X194573000Y-130726250D01*
X194573000Y-129664500D01*
X194827000Y-129664500D01*
X194827000Y-130726250D01*
X194985750Y-130885000D01*
X195701310Y-130885000D01*
X195934699Y-130788327D01*
X196113327Y-130609698D01*
X196210000Y-130376309D01*
X196210000Y-129823250D01*
X196051250Y-129664500D01*
X194827000Y-129664500D01*
X194573000Y-129664500D01*
X193348750Y-129664500D01*
X193190000Y-129823250D01*
X174510000Y-129823250D01*
X174510000Y-128698691D01*
X193190000Y-128698691D01*
X193190000Y-129251750D01*
X193348750Y-129410500D01*
X194573000Y-129410500D01*
X194573000Y-128348750D01*
X194827000Y-128348750D01*
X194827000Y-129410500D01*
X196051250Y-129410500D01*
X196210000Y-129251750D01*
X196210000Y-128698691D01*
X196113327Y-128465302D01*
X195934699Y-128286673D01*
X195701310Y-128190000D01*
X194985750Y-128190000D01*
X194827000Y-128348750D01*
X194573000Y-128348750D01*
X194414250Y-128190000D01*
X193698690Y-128190000D01*
X193465301Y-128286673D01*
X193286673Y-128465302D01*
X193190000Y-128698691D01*
X174510000Y-128698691D01*
X174510000Y-113899999D01*
X177502560Y-113899999D01*
X177502560Y-114550001D01*
X177570873Y-114893436D01*
X177765414Y-115184586D01*
X178056564Y-115379127D01*
X178090000Y-115385778D01*
X178090001Y-117314222D01*
X178056564Y-117320873D01*
X177765414Y-117515414D01*
X177570873Y-117806564D01*
X177502560Y-118149999D01*
X177502560Y-118800001D01*
X177570873Y-119143436D01*
X177765414Y-119434586D01*
X177863313Y-119500000D01*
X177765414Y-119565414D01*
X177570873Y-119856564D01*
X177502560Y-120199999D01*
X177502560Y-120850001D01*
X177570873Y-121193436D01*
X177765414Y-121484586D01*
X178056564Y-121679127D01*
X178399999Y-121747440D01*
X179300001Y-121747440D01*
X179643436Y-121679127D01*
X179934586Y-121484586D01*
X180061264Y-121295000D01*
X181421728Y-121295000D01*
X181404673Y-121320525D01*
X181110198Y-121615000D01*
X180944126Y-121615000D01*
X180563720Y-121772569D01*
X180272569Y-122063720D01*
X180115000Y-122444126D01*
X180115000Y-122855874D01*
X180272569Y-123236280D01*
X180563720Y-123527431D01*
X180944126Y-123685000D01*
X181355874Y-123685000D01*
X181736280Y-123527431D01*
X182027431Y-123236280D01*
X182185000Y-122855874D01*
X182185000Y-122689802D01*
X182309802Y-122565000D01*
X182470470Y-122565000D01*
X182677235Y-122703157D01*
X182925000Y-122752440D01*
X184475000Y-122752440D01*
X184722765Y-122703157D01*
X184932809Y-122562809D01*
X185073157Y-122352765D01*
X185122440Y-122105000D01*
X185122440Y-121505000D01*
X185073157Y-121257235D01*
X185014868Y-121170000D01*
X185073157Y-121082765D01*
X185122440Y-120835000D01*
X185122440Y-120235000D01*
X185080669Y-120025000D01*
X185400199Y-120025000D01*
X186394670Y-121019472D01*
X186437071Y-121082929D01*
X186688463Y-121250904D01*
X186910148Y-121295000D01*
X186910152Y-121295000D01*
X186984999Y-121309888D01*
X187059846Y-121295000D01*
X187719331Y-121295000D01*
X187677560Y-121505000D01*
X187677560Y-122105000D01*
X187726843Y-122352765D01*
X187867191Y-122562809D01*
X188077235Y-122703157D01*
X188325000Y-122752440D01*
X189875000Y-122752440D01*
X190122765Y-122703157D01*
X190332809Y-122562809D01*
X190473157Y-122352765D01*
X190522440Y-122105000D01*
X190522440Y-121505000D01*
X190480669Y-121295000D01*
X191985199Y-121295000D01*
X192449671Y-121759473D01*
X192492071Y-121822929D01*
X192743463Y-121990904D01*
X192965148Y-122035000D01*
X192965152Y-122035000D01*
X193039999Y-122049888D01*
X193114846Y-122035000D01*
X193482054Y-122035000D01*
X193615414Y-122234586D01*
X193906564Y-122429127D01*
X193940000Y-122435778D01*
X193940001Y-125229413D01*
X193731565Y-125270874D01*
X193440414Y-125465414D01*
X193245874Y-125756565D01*
X193177560Y-126100000D01*
X193177560Y-127025000D01*
X193245874Y-127368435D01*
X193440414Y-127659586D01*
X193731565Y-127854126D01*
X194075000Y-127922440D01*
X195325000Y-127922440D01*
X195668435Y-127854126D01*
X195959586Y-127659586D01*
X196154126Y-127368435D01*
X196222440Y-127025000D01*
X196222440Y-126100000D01*
X196154126Y-125756565D01*
X195959586Y-125465414D01*
X195668435Y-125270874D01*
X195460000Y-125229413D01*
X195460000Y-122435778D01*
X195493436Y-122429127D01*
X195784586Y-122234586D01*
X195979127Y-121943436D01*
X196047440Y-121600001D01*
X196047440Y-120949999D01*
X195979127Y-120606564D01*
X195784586Y-120315414D01*
X195686687Y-120250000D01*
X195784586Y-120184586D01*
X195979127Y-119893436D01*
X196047440Y-119550001D01*
X196047440Y-118899999D01*
X195979127Y-118556564D01*
X195784586Y-118265414D01*
X195493436Y-118070873D01*
X195460000Y-118064222D01*
X195460000Y-115435778D01*
X195493436Y-115429127D01*
X195784586Y-115234586D01*
X195979127Y-114943436D01*
X196047440Y-114600001D01*
X196047440Y-113949999D01*
X195979127Y-113606564D01*
X195784586Y-113315414D01*
X195686687Y-113250000D01*
X195784586Y-113184586D01*
X195979127Y-112893436D01*
X196047440Y-112550001D01*
X196047440Y-111899999D01*
X195979127Y-111556564D01*
X195784586Y-111265414D01*
X195493436Y-111070873D01*
X195150001Y-111002560D01*
X194249999Y-111002560D01*
X193906564Y-111070873D01*
X193615414Y-111265414D01*
X193482054Y-111465000D01*
X192178711Y-111465000D01*
X192086280Y-111372569D01*
X191705874Y-111215000D01*
X191294126Y-111215000D01*
X190913720Y-111372569D01*
X190622569Y-111663720D01*
X190465000Y-112044126D01*
X190465000Y-112455874D01*
X190622569Y-112836280D01*
X190913720Y-113127431D01*
X191294126Y-113285000D01*
X191705874Y-113285000D01*
X192086280Y-113127431D01*
X192228711Y-112985000D01*
X193482054Y-112985000D01*
X193615414Y-113184586D01*
X193713313Y-113250000D01*
X193615414Y-113315414D01*
X193420873Y-113606564D01*
X193352560Y-113949999D01*
X193352560Y-114600001D01*
X193420873Y-114943436D01*
X193615414Y-115234586D01*
X193906564Y-115429127D01*
X193940000Y-115435778D01*
X193940001Y-118064222D01*
X193906564Y-118070873D01*
X193615414Y-118265414D01*
X193455327Y-118505000D01*
X190480669Y-118505000D01*
X190522440Y-118295000D01*
X190522440Y-117695000D01*
X190473157Y-117447235D01*
X190332809Y-117237191D01*
X190122765Y-117096843D01*
X189875000Y-117047560D01*
X189860000Y-117047560D01*
X189860000Y-116103711D01*
X190027431Y-115936280D01*
X190185000Y-115555874D01*
X190185000Y-115144126D01*
X190027431Y-114763720D01*
X189736280Y-114472569D01*
X189355874Y-114315000D01*
X188944126Y-114315000D01*
X188563720Y-114472569D01*
X188272569Y-114763720D01*
X188115000Y-115144126D01*
X188115000Y-115555874D01*
X188272569Y-115936280D01*
X188340001Y-116003712D01*
X188340000Y-117047560D01*
X188325000Y-117047560D01*
X188077235Y-117096843D01*
X187867191Y-117237191D01*
X187726843Y-117447235D01*
X187677560Y-117695000D01*
X187677560Y-118295000D01*
X187726843Y-118542765D01*
X187785132Y-118630000D01*
X187726843Y-118717235D01*
X187677560Y-118965000D01*
X187677560Y-119565000D01*
X187719331Y-119775000D01*
X187299802Y-119775000D01*
X186305331Y-118780530D01*
X186262929Y-118717071D01*
X186011537Y-118549096D01*
X185789852Y-118505000D01*
X185789847Y-118505000D01*
X185715000Y-118490112D01*
X185640153Y-118505000D01*
X185075334Y-118505000D01*
X185110000Y-118421310D01*
X185110000Y-118280750D01*
X184951250Y-118122000D01*
X183827000Y-118122000D01*
X183827000Y-118142000D01*
X183573000Y-118142000D01*
X183573000Y-118122000D01*
X182448750Y-118122000D01*
X182290000Y-118280750D01*
X182290000Y-118421310D01*
X182379768Y-118638028D01*
X182326843Y-118717235D01*
X182277560Y-118965000D01*
X182277560Y-119565000D01*
X182319331Y-119775000D01*
X180074627Y-119775000D01*
X179934586Y-119565414D01*
X179836687Y-119500000D01*
X179934586Y-119434586D01*
X180129127Y-119143436D01*
X180197440Y-118800001D01*
X180197440Y-118149999D01*
X180129127Y-117806564D01*
X179970185Y-117568690D01*
X182290000Y-117568690D01*
X182290000Y-117709250D01*
X182448750Y-117868000D01*
X183573000Y-117868000D01*
X183573000Y-117218750D01*
X183827000Y-117218750D01*
X183827000Y-117868000D01*
X184951250Y-117868000D01*
X185110000Y-117709250D01*
X185110000Y-117568690D01*
X185013327Y-117335301D01*
X184834698Y-117156673D01*
X184601309Y-117060000D01*
X183985750Y-117060000D01*
X183827000Y-117218750D01*
X183573000Y-117218750D01*
X183414250Y-117060000D01*
X182798691Y-117060000D01*
X182565302Y-117156673D01*
X182386673Y-117335301D01*
X182290000Y-117568690D01*
X179970185Y-117568690D01*
X179934586Y-117515414D01*
X179643436Y-117320873D01*
X179610000Y-117314222D01*
X179610000Y-115385778D01*
X179643436Y-115379127D01*
X179934586Y-115184586D01*
X180129127Y-114893436D01*
X180197440Y-114550001D01*
X180197440Y-113899999D01*
X180129127Y-113556564D01*
X179934586Y-113265414D01*
X179933403Y-113264623D01*
X180088327Y-113109698D01*
X180185000Y-112876309D01*
X180185000Y-112460750D01*
X180026250Y-112302000D01*
X178977000Y-112302000D01*
X178977000Y-112322000D01*
X178723000Y-112322000D01*
X178723000Y-112302000D01*
X177673750Y-112302000D01*
X177515000Y-112460750D01*
X177515000Y-112876309D01*
X177611673Y-113109698D01*
X177766597Y-113264623D01*
X177765414Y-113265414D01*
X177570873Y-113556564D01*
X177502560Y-113899999D01*
X174510000Y-113899999D01*
X174510000Y-111473691D01*
X177515000Y-111473691D01*
X177515000Y-111889250D01*
X177673750Y-112048000D01*
X178723000Y-112048000D01*
X178723000Y-111123750D01*
X178977000Y-111123750D01*
X178977000Y-112048000D01*
X180026250Y-112048000D01*
X180185000Y-111889250D01*
X180185000Y-111473691D01*
X180088327Y-111240302D01*
X179909699Y-111061673D01*
X179676310Y-110965000D01*
X179135750Y-110965000D01*
X178977000Y-111123750D01*
X178723000Y-111123750D01*
X178564250Y-110965000D01*
X178023690Y-110965000D01*
X177790301Y-111061673D01*
X177611673Y-111240302D01*
X177515000Y-111473691D01*
X174510000Y-111473691D01*
X174510000Y-98010000D01*
X197290000Y-98010000D01*
X197290001Y-138790000D01*
G04 #@! TD*
M02*
