G04 #@! TF.GenerationSoftware,KiCad,Pcbnew,(5.0.0)*
G04 #@! TF.CreationDate,2018-10-15T00:14:37+02:00*
G04 #@! TF.ProjectId,GettingToBlinky,47657474696E67546F426C696E6B792E,rev?*
G04 #@! TF.SameCoordinates,Original*
G04 #@! TF.FileFunction,Copper,L2,Bot,Signal*
G04 #@! TF.FilePolarity,Positive*
%FSLAX46Y46*%
G04 Gerber Fmt 4.6, Leading zero omitted, Abs format (unit mm)*
G04 Created by KiCad (PCBNEW (5.0.0)) date 10/15/18 00:14:37*
%MOMM*%
%LPD*%
G01*
G04 APERTURE LIST*
G04 #@! TA.AperFunction,SMDPad,CuDef*
%ADD10R,4.200000X3.000000*%
G04 #@! TD*
G04 #@! TA.AperFunction,ViaPad*
%ADD11C,0.800000*%
G04 #@! TD*
G04 #@! TA.AperFunction,Conductor*
%ADD12C,0.250000*%
G04 #@! TD*
G04 #@! TA.AperFunction,Conductor*
%ADD13C,0.254000*%
G04 #@! TD*
G04 APERTURE END LIST*
D10*
G04 #@! TO.P,BT1,1*
G04 #@! TO.N,/VDD*
X185900000Y-103050000D03*
G04 #@! TO.P,BT1,2*
G04 #@! TO.N,GND*
X185900000Y-132050000D03*
G04 #@! TD*
D11*
G04 #@! TO.N,/VDD*
X189150000Y-115350000D03*
X191500000Y-112250000D03*
X181150000Y-122650000D03*
G04 #@! TO.N,GND*
X185900000Y-129200000D03*
G04 #@! TD*
D12*
G04 #@! TO.N,/VDD*
X191500000Y-112250000D02*
X191600000Y-112150000D01*
G04 #@! TO.N,GND*
X185900000Y-132050000D02*
X185900000Y-129200000D01*
G04 #@! TD*
D13*
G04 #@! TO.N,/VDD*
G36*
X197290001Y-138790000D02*
X174510000Y-138790000D01*
X174510000Y-130550000D01*
X183152560Y-130550000D01*
X183152560Y-133550000D01*
X183201843Y-133797765D01*
X183342191Y-134007809D01*
X183552235Y-134148157D01*
X183800000Y-134197440D01*
X188000000Y-134197440D01*
X188247765Y-134148157D01*
X188457809Y-134007809D01*
X188598157Y-133797765D01*
X188647440Y-133550000D01*
X188647440Y-130550000D01*
X188598157Y-130302235D01*
X188457809Y-130092191D01*
X188247765Y-129951843D01*
X188000000Y-129902560D01*
X186661151Y-129902560D01*
X186777431Y-129786280D01*
X186935000Y-129405874D01*
X186935000Y-128994126D01*
X186777431Y-128613720D01*
X186486280Y-128322569D01*
X186105874Y-128165000D01*
X185694126Y-128165000D01*
X185313720Y-128322569D01*
X185022569Y-128613720D01*
X184865000Y-128994126D01*
X184865000Y-129405874D01*
X185022569Y-129786280D01*
X185138849Y-129902560D01*
X183800000Y-129902560D01*
X183552235Y-129951843D01*
X183342191Y-130092191D01*
X183201843Y-130302235D01*
X183152560Y-130550000D01*
X174510000Y-130550000D01*
X174510000Y-103335750D01*
X183165000Y-103335750D01*
X183165000Y-104676310D01*
X183261673Y-104909699D01*
X183440302Y-105088327D01*
X183673691Y-105185000D01*
X185614250Y-105185000D01*
X185773000Y-105026250D01*
X185773000Y-103177000D01*
X186027000Y-103177000D01*
X186027000Y-105026250D01*
X186185750Y-105185000D01*
X188126309Y-105185000D01*
X188359698Y-105088327D01*
X188538327Y-104909699D01*
X188635000Y-104676310D01*
X188635000Y-103335750D01*
X188476250Y-103177000D01*
X186027000Y-103177000D01*
X185773000Y-103177000D01*
X183323750Y-103177000D01*
X183165000Y-103335750D01*
X174510000Y-103335750D01*
X174510000Y-101423690D01*
X183165000Y-101423690D01*
X183165000Y-102764250D01*
X183323750Y-102923000D01*
X185773000Y-102923000D01*
X185773000Y-101073750D01*
X186027000Y-101073750D01*
X186027000Y-102923000D01*
X188476250Y-102923000D01*
X188635000Y-102764250D01*
X188635000Y-101423690D01*
X188538327Y-101190301D01*
X188359698Y-101011673D01*
X188126309Y-100915000D01*
X186185750Y-100915000D01*
X186027000Y-101073750D01*
X185773000Y-101073750D01*
X185614250Y-100915000D01*
X183673691Y-100915000D01*
X183440302Y-101011673D01*
X183261673Y-101190301D01*
X183165000Y-101423690D01*
X174510000Y-101423690D01*
X174510000Y-98010000D01*
X197290000Y-98010000D01*
X197290001Y-138790000D01*
X197290001Y-138790000D01*
G37*
X197290001Y-138790000D02*
X174510000Y-138790000D01*
X174510000Y-130550000D01*
X183152560Y-130550000D01*
X183152560Y-133550000D01*
X183201843Y-133797765D01*
X183342191Y-134007809D01*
X183552235Y-134148157D01*
X183800000Y-134197440D01*
X188000000Y-134197440D01*
X188247765Y-134148157D01*
X188457809Y-134007809D01*
X188598157Y-133797765D01*
X188647440Y-133550000D01*
X188647440Y-130550000D01*
X188598157Y-130302235D01*
X188457809Y-130092191D01*
X188247765Y-129951843D01*
X188000000Y-129902560D01*
X186661151Y-129902560D01*
X186777431Y-129786280D01*
X186935000Y-129405874D01*
X186935000Y-128994126D01*
X186777431Y-128613720D01*
X186486280Y-128322569D01*
X186105874Y-128165000D01*
X185694126Y-128165000D01*
X185313720Y-128322569D01*
X185022569Y-128613720D01*
X184865000Y-128994126D01*
X184865000Y-129405874D01*
X185022569Y-129786280D01*
X185138849Y-129902560D01*
X183800000Y-129902560D01*
X183552235Y-129951843D01*
X183342191Y-130092191D01*
X183201843Y-130302235D01*
X183152560Y-130550000D01*
X174510000Y-130550000D01*
X174510000Y-103335750D01*
X183165000Y-103335750D01*
X183165000Y-104676310D01*
X183261673Y-104909699D01*
X183440302Y-105088327D01*
X183673691Y-105185000D01*
X185614250Y-105185000D01*
X185773000Y-105026250D01*
X185773000Y-103177000D01*
X186027000Y-103177000D01*
X186027000Y-105026250D01*
X186185750Y-105185000D01*
X188126309Y-105185000D01*
X188359698Y-105088327D01*
X188538327Y-104909699D01*
X188635000Y-104676310D01*
X188635000Y-103335750D01*
X188476250Y-103177000D01*
X186027000Y-103177000D01*
X185773000Y-103177000D01*
X183323750Y-103177000D01*
X183165000Y-103335750D01*
X174510000Y-103335750D01*
X174510000Y-101423690D01*
X183165000Y-101423690D01*
X183165000Y-102764250D01*
X183323750Y-102923000D01*
X185773000Y-102923000D01*
X185773000Y-101073750D01*
X186027000Y-101073750D01*
X186027000Y-102923000D01*
X188476250Y-102923000D01*
X188635000Y-102764250D01*
X188635000Y-101423690D01*
X188538327Y-101190301D01*
X188359698Y-101011673D01*
X188126309Y-100915000D01*
X186185750Y-100915000D01*
X186027000Y-101073750D01*
X185773000Y-101073750D01*
X185614250Y-100915000D01*
X183673691Y-100915000D01*
X183440302Y-101011673D01*
X183261673Y-101190301D01*
X183165000Y-101423690D01*
X174510000Y-101423690D01*
X174510000Y-98010000D01*
X197290000Y-98010000D01*
X197290001Y-138790000D01*
G04 #@! TD*
M02*
